<svg width="123" height="114" version="1.1" xmlns="http://www.w3.org/2000/svg" desc="Created with imagetracer.js version 1.2.6" ><path fill="rgb(209,183,185)" stroke="rgb(209,183,185)" stroke-width="1" opacity="1" d="M 68.5 6 L 71 7.5 L 69.5 7 L 68.5 6 Z " /><path fill="rgb(209,183,185)" stroke="rgb(209,183,185)" stroke-width="1" opacity="1" d="M 73.5 9 L 74.5 11 L 73.5 9 Z " /><path fill="rgb(209,183,185)" stroke="rgb(209,183,185)" stroke-width="1" opacity="1" d="M 62.5 11 Q 68 10.5 70 13.5 L 70 15.5 Q 69.3 17.8 71.5 17 L 73 19.5 L 72 19.5 L 71.5 18 L 70 22.5 L 72 23.5 L 68.5 25 L 66 24 L 65.5 26 L 63.5 26 L 61 26 Q 62.1 23.3 59.5 24 L 58 24.5 L 58.5 23 L 57 22.5 L 57 15.5 L 60.5 14 L 62 13.5 Q 59.8 12.3 62.5 11 Z M 63 12 L 63 13 L 66 13 L 63 12 Z " /><path fill="rgb(209,183,185)" stroke="rgb(209,183,185)" stroke-width="1" opacity="1" d="M 51.5 14 L 52 15.5 L 48.5 17 L 48.5 16 Q 52 17 51.5 14 Z " /><path fill="rgb(209,183,185)" stroke="rgb(209,183,185)" stroke-width="1" opacity="1" d="M 85.5 15 L 86.5 17 L 85.5 15 Z " /><path fill="rgb(209,183,185)" stroke="rgb(209,183,185)" stroke-width="1" opacity="1" d="M 90.5 15 L 94 15.5 L 90.5 16 L 90.5 15 Z " /><path fill="rgb(209,183,185)" stroke="rgb(209,183,185)" stroke-width="1" opacity="1" d="M 106.5 17 L 110 21.5 L 108 20.5 L 106.5 17 Z " /><path fill="rgb(209,183,185)" stroke="rgb(209,183,185)" stroke-width="1" opacity="1" d="M 33.5 18 L 33 19.5 L 32.5 21 L 32 19.5 L 33.5 18 Z " /><path fill="rgb(209,183,185)" stroke="rgb(209,183,185)" stroke-width="1" opacity="1" d="M 78.5 21 L 82 21.5 L 78.5 22 L 78.5 21 Z " /><path fill="rgb(209,183,185)" stroke="rgb(209,183,185)" stroke-width="1" opacity="1" d="M 83.5 21 L 84.5 23 L 83.5 21 Z " /><path fill="rgb(209,183,185)" stroke="rgb(209,183,185)" stroke-width="1" opacity="1" d="M 94.5 21 Q 102.5 19.5 105 23.5 L 104 26.5 L 106 26.5 L 105 28.5 L 105.5 30 L 104 29.5 Q 104.8 33.3 102.5 34 L 99.5 35 L 97.5 34 L 95.5 34 Q 90.5 34.5 90 30.5 L 89 28.5 L 90 25.5 Q 88.9 22.2 91.5 23 L 94.5 21 Z M 99 22 L 99 23 L 102 23 L 99 22 Z " /><path fill="rgb(209,183,185)" stroke="rgb(209,183,185)" stroke-width="1" opacity="1" d="M 3.5 22 L 4 25.5 L 3 25.5 L 3.5 22 Z " /><path fill="rgb(209,183,185)" stroke="rgb(209,183,185)" stroke-width="1" opacity="1" d="M 38.5 22 L 44 22.5 L 38.5 23 L 38.5 22 Z " /><path fill="rgb(209,183,185)" stroke="rgb(209,183,185)" stroke-width="1" opacity="1" d="M 3.5 27 L 4.5 29 L 3.5 27 Z " /><path fill="rgb(209,183,185)" stroke="rgb(209,183,185)" stroke-width="1" opacity="1" d="M 53.5 27 L 55.5 30 L 53.5 27 Z " /><path fill="rgb(209,183,185)" stroke="rgb(209,183,185)" stroke-width="1" opacity="1" d="M 14.5 29 L 12.5 32 L 14.5 29 Z " /><path fill="rgb(209,183,185)" stroke="rgb(209,183,185)" stroke-width="1" opacity="1" d="M 68.5 30 L 71 30.5 L 68.5 31 L 68.5 30 Z " /><path fill="rgb(209,183,185)" stroke="rgb(209,183,185)" stroke-width="1" opacity="1" d="M 110.5 33 L 109.5 35 L 110.5 33 Z " /><path fill="rgb(209,183,185)" stroke="rgb(209,183,185)" stroke-width="1" opacity="1" d="M 85.5 34 L 87.5 37 L 85.5 34 Z " /><path fill="rgb(209,183,185)" stroke="rgb(209,183,185)" stroke-width="1" opacity="1" d="M 10.5 36 L 11.5 38 L 10.5 36 Z " /><path fill="rgb(209,183,185)" stroke="rgb(209,183,185)" stroke-width="1" opacity="1" d="M 15.5 36 L 14.5 38 L 15.5 36 Z " /><path fill="rgb(209,183,185)" stroke="rgb(209,183,185)" stroke-width="1" opacity="1" d="M 33.5 36 L 34 38.5 L 33 38.5 L 33.5 36 Z " /><path fill="rgb(209,183,185)" stroke="rgb(209,183,185)" stroke-width="1" opacity="1" d="M 27.5 37 L 28 38.5 L 26 39.5 L 27.5 37 Z " /><path fill="rgb(209,183,185)" stroke="rgb(209,183,185)" stroke-width="1" opacity="1" d="M 10.5 40 L 10 41.5 L 9.5 44 L 9 41.5 L 10.5 40 Z " /><path fill="rgb(209,183,185)" stroke="rgb(209,183,185)" stroke-width="1" opacity="1" d="M 13.5 40 L 14.5 42 L 13.5 40 Z " /><path fill="rgb(209,183,185)" stroke="rgb(209,183,185)" stroke-width="1" opacity="1" d="M 32.5 40 L 31.5 42 L 32.5 40 Z " /><path fill="rgb(209,183,185)" stroke="rgb(209,183,185)" stroke-width="1" opacity="1" d="M 71.5 40 L 75 41.5 L 73.5 45 L 74 43.5 Q 75.3 39.8 71.5 41 L 70 41.5 L 71.5 40 Z " /><path fill="rgb(209,183,185)" stroke="rgb(209,183,185)" stroke-width="1" opacity="1" d="M 57.5 43 L 56.5 45 L 55 44.5 L 57.5 43 Z " /><path fill="rgb(209,183,185)" stroke="rgb(209,183,185)" stroke-width="1" opacity="1" d="M 70.5 43 L 71.5 45 L 70.5 43 Z " /><path fill="rgb(209,183,185)" stroke="rgb(209,183,185)" stroke-width="1" opacity="1" d="M 38.5 45 L 40 48.5 L 39 48.5 L 38.5 45 Z " /><path fill="rgb(209,183,185)" stroke="rgb(209,183,185)" stroke-width="1" opacity="1" d="M 98.5 45 L 96.5 48 L 98.5 45 Z " /><path fill="rgb(209,183,185)" stroke="rgb(209,183,185)" stroke-width="1" opacity="1" d="M 105.5 49 L 107 51.5 L 106 51.5 L 105.5 49 Z " /><path fill="rgb(209,183,185)" stroke="rgb(209,183,185)" stroke-width="1" opacity="1" d="M 111.5 49 L 112 51.5 L 111 51.5 L 111.5 49 Z " /><path fill="rgb(209,183,185)" stroke="rgb(209,183,185)" stroke-width="1" opacity="1" d="M 29.5 50 L 30 52.5 L 29 52.5 L 29.5 50 Z " /><path fill="rgb(209,183,185)" stroke="rgb(209,183,185)" stroke-width="1" opacity="1" d="M 98.5 56 L 103 56.5 L 98.5 57 L 98.5 56 Z " /><path fill="rgb(209,183,185)" stroke="rgb(209,183,185)" stroke-width="1" opacity="1" d="M 111.5 56 L 112 58.5 L 111 58.5 L 111.5 56 Z " /><path fill="rgb(209,183,185)" stroke="rgb(209,183,185)" stroke-width="1" opacity="1" d="M 95.5 57 L 94.5 59 L 95.5 57 Z " /><path fill="rgb(209,183,185)" stroke="rgb(209,183,185)" stroke-width="1" opacity="1" d="M 35.5 63 L 38 64.5 L 36.5 64 L 35.5 63 Z " /><path fill="rgb(209,183,185)" stroke="rgb(209,183,185)" stroke-width="1" opacity="1" d="M 28.5 65 L 27.5 67 L 28.5 65 Z " /><path fill="rgb(209,183,185)" stroke="rgb(209,183,185)" stroke-width="1" opacity="1" d="M 45.5 67 L 48 67.5 L 45.5 68 L 45.5 67 Z " /><path fill="rgb(209,183,185)" stroke="rgb(209,183,185)" stroke-width="1" opacity="1" d="M 86.5 67 L 90 67.5 L 86.5 68 L 86.5 67 Z " /><path fill="rgb(209,183,185)" stroke="rgb(209,183,185)" stroke-width="1" opacity="1" d="M 56.5 68 L 60 68.5 L 56.5 69 L 56.5 68 Z " /><path fill="rgb(209,183,185)" stroke="rgb(209,183,185)" stroke-width="1" opacity="1" d="M 65.5 68 L 71 68.5 L 65.5 69 L 65.5 68 Z " /><path fill="rgb(209,183,185)" stroke="rgb(209,183,185)" stroke-width="1" opacity="1" d="M 32.5 69 L 50.5 74 L 83.5 74 L 85.5 73 Q 88.3 74.3 86 75.5 Q 85.3 82.7 89.5 85 L 94.5 87 L 98.5 86 L 97.5 88 L 95.5 89 L 94 88.5 Q 94.9 91.5 90.5 90 L 89.5 91 L 64.5 91 L 62.5 93 L 60.5 92 L 59 92.5 L 59.5 91 L 57.5 92 L 55.5 91 L 51.5 92 L 49.5 90 L 41.5 89 L 37 85.5 L 38 78.5 L 36.5 76 L 36 78 L 33 77.5 Q 35.5 76 32 74.5 L 31.5 71 L 30 71.5 L 32.5 69 Z " /><path fill="rgb(209,183,185)" stroke="rgb(209,183,185)" stroke-width="1" opacity="1" d="M 91.5 76 L 92 78.5 L 91 78.5 L 91.5 76 Z " /><path fill="rgb(209,183,185)" stroke="rgb(209,183,185)" stroke-width="1" opacity="1" d="M 106.5 80 L 107 82.5 L 106 82.5 L 106.5 80 Z " /><path fill="rgb(209,183,185)" stroke="rgb(209,183,185)" stroke-width="1" opacity="1" d="M 104.5 87 L 103.5 89 L 104.5 87 Z " /><path fill="rgb(209,183,185)" stroke="rgb(209,183,185)" stroke-width="1" opacity="1" d="M 32.5 89 L 34 91.5 L 33 91.5 L 32.5 89 Z " /><path fill="rgb(209,183,185)" stroke="rgb(209,183,185)" stroke-width="1" opacity="1" d="M 102.5 90 L 100.5 93 L 102.5 90 Z " /><path fill="rgb(209,183,185)" stroke="rgb(209,183,185)" stroke-width="1" opacity="1" d="M 40.5 94 L 42.5 95 Q 43.8 92.8 45 95.5 L 42.5 96 L 40.5 94 Z " /><path fill="rgb(209,183,185)" stroke="rgb(209,183,185)" stroke-width="1" opacity="1" d="M 97.5 94 L 97 95.5 L 96.5 97 L 96 95.5 L 97.5 94 Z " /><path fill="rgb(209,183,185)" stroke="rgb(209,183,185)" stroke-width="1" opacity="1" d="M 67.5 96 L 70 96.5 L 67.5 97 L 67.5 96 Z " /><path fill="rgb(209,183,185)" stroke="rgb(209,183,185)" stroke-width="1" opacity="1" d="M 81.5 96 L 84 96.5 L 81.5 97 L 81.5 96 Z " /><path fill="rgb(209,183,185)" stroke="rgb(209,183,185)" stroke-width="1" opacity="1" d="M 36.5 98 L 37.5 100 L 36.5 98 Z " /><path fill="rgb(209,183,185)" stroke="rgb(209,183,185)" stroke-width="1" opacity="1" d="M 58.5 98 L 55.5 102 L 54 101.5 L 58.5 98 Z " /><path fill="rgb(209,183,185)" stroke="rgb(209,183,185)" stroke-width="1" opacity="1" d="M 95.5 98 L 94.5 100 L 95.5 98 Z " /><path fill="rgb(209,183,185)" stroke="rgb(209,183,185)" stroke-width="1" opacity="1" d="M 72.5 99 L 73.5 101 L 72.5 99 Z " /><path fill="rgb(209,183,185)" stroke="rgb(209,183,185)" stroke-width="1" opacity="1" d="M 75.5 101 L 80 102.5 L 76.5 103 L 75.5 101 Z " /><path fill="rgb(209,183,185)" stroke="rgb(209,183,185)" stroke-width="1" opacity="1" d="M 92.5 101 L 91.5 103 L 89 102.5 L 92.5 101 Z " /><path fill="rgb(254,253,253)" stroke="rgb(254,253,253)" stroke-width="1" opacity="1" d="M 0 0 L 123 0 L 123 114 L 0 114 L 0 0 Z M 65 4 L 64 5 Q 57 4 58 7 L 56 8 L 50 16 L 48 15 L 47 17 L 43 17 L 43 16 L 42 16 Q 37 17 36 15 Q 32 14 34 18 L 31 19 L 31 21 L 26 28 L 28 35 L 25 40 L 25 45 L 23 47 L 23 56 L 24 57 L 23 60 L 24 64 L 28 66 L 24 69 L 25 71 Q 22 72 23 78 L 23 80 L 25 85 L 29 84 L 31 89 L 31 90 L 33 91 L 33 98 L 38 101 L 49 102 L 50 103 L 60 101 L 59 97 L 63 98 L 61 101 L 62 102 L 73 100 L 77 103 L 87 104 L 89 104 L 95 101 Q 100 103 102 100 L 106 101 Q 107 97 104 95 L 109 85 L 109 76 L 108 75 L 105 69 L 108 70 L 107 68 Q 111 66 112 61 L 114 62 L 114 40 L 112 39 L 113 35 L 112 31 L 113 26 L 112 23 L 116 22 Q 118 23 117 21 L 116 21 Q 113 22 114 19 L 109 19 Q 106 14 101 13 L 98 14 L 98 13 Q 100 14 99 11 L 95 13 Q 96 15 94 14 L 92 14 L 89 15 Q 87 18 86 14 L 76 14 L 76 11 L 73 9 L 75 8 L 65 4 Z M 72 4 L 72 6 L 75 6 Q 76 3 72 4 Z M 11 17 L 7 18 Q 5 21 4 19 L 2 26 L 2 28 L 6 33 L 10 32 L 9 34 Q 8 38 11 39 L 9 39 L 11 49 L 12 46 L 16 45 L 17 38 L 17 36 L 23 31 L 23 27 L 20 22 Q 18 16 11 17 Z M 115 24 L 115 25 L 119 25 L 115 24 Z M 117 26 L 117 33 L 119 32 L 117 26 Z M 113 63 L 111 66 L 113 66 L 113 63 Z " /><path fill="rgb(254,253,253)" stroke="rgb(254,253,253)" stroke-width="1" opacity="1" d="M 48.5 23 L 50 28 Q 53.8 26.5 53 29.5 L 58.5 34 L 59.5 32 L 60 34 L 65.5 32 L 70.5 33 L 72.5 30 L 73.5 32 L 78.5 31 L 79.5 33 L 78 33.5 L 84 34 L 84 37 Q 86.7 35.9 86 38.5 L 88 39.5 L 88.5 38 L 90.5 40 L 93.5 40 L 95.5 42 Q 100 41 101 43.5 L 96.5 46 L 95.5 44 L 95 50 Q 98.1 52 105 51 Q 107.1 56.2 102.5 55 Q 101 57.5 95.5 56 L 94 57.5 L 93 62 L 96.5 63 L 101.5 62 L 100.5 64 L 99 63.5 Q 99.6 66.3 93.5 65 L 88.5 67 L 86.5 67 L 82.5 66 L 80.5 66 L 69.5 68 L 67.5 67 L 65 68 L 64.5 66 L 61.5 68 Q 60 64.5 58.5 67 L 53.5 66 L 50.5 67 L 48.5 67 L 44 66 L 44 60.5 L 44.5 60 L 77.5 60 L 78 57.5 L 76.5 56 L 44 56 L 44.5 54 L 51.5 54 Q 52.8 56.3 57.5 55 Q 60 54 59 49.5 L 56 45.5 L 59 43.5 Q 61.1 37.6 56.5 39 L 52 40.5 L 50.5 38 Q 46.8 36.8 48 40.5 Q 50.3 41.8 47.5 43 L 45 44.5 L 44 51 L 39 50.5 L 40 44 L 35 43 L 35 40 Q 37.7 41.1 37 38.5 L 35 30.5 L 36 30.5 Q 35.3 33.1 38 32 L 38 27 L 40.5 27 L 44 26 Q 42.7 22.7 47.5 24 L 48.5 23 Z M 45 26 L 43 28 L 46 28 Q 47 25 45 26 Z M 77 38 L 77 40 L 81 39 L 77 38 Z M 43 39 L 43 42 L 45 43 Q 46 38 43 39 Z M 73 39 Q 70 39 70 44 L 70 46 L 73 53 L 73 54 L 77 54 L 77 56 L 81 56 L 80 58 Q 79 60 83 59 Q 86 57 82 56 L 84 55 L 85 53 Q 86 46 84 44 L 76 43 L 75 41 Q 76 38 73 39 Z " /><path fill="rgb(254,253,253)" stroke="rgb(254,253,253)" stroke-width="1" opacity="1" d="M 9.5 25 L 14 25.5 L 13 28 L 11 28 Q 12.1 25.3 9.5 26 L 9.5 25 Z " /><path fill="rgb(254,253,253)" stroke="rgb(254,253,253)" stroke-width="1" opacity="1" d="M 9.5 28 L 8.5 30 L 9.5 28 Z " /><path fill="rgb(254,253,253)" stroke="rgb(254,253,253)" stroke-width="1" opacity="1" d="M 12.5 29 L 11.5 31 L 12.5 29 Z " /><path fill="rgb(254,253,253)" stroke="rgb(254,253,253)" stroke-width="1" opacity="1" d="M 35.5 52 L 38 52.5 L 35 54 L 35.5 52 Z " /><path fill="rgb(254,253,253)" stroke="rgb(254,253,253)" stroke-width="1" opacity="1" d="M 97.5 75 L 98 77.5 L 97 77.5 L 97.5 75 Z " /><path fill="rgb(254,253,253)" stroke="rgb(254,253,253)" stroke-width="1" opacity="1" d="M 99.5 94 L 98.5 96 L 97 95.5 L 99.5 94 Z " /><path fill="rgb(32,31,27)" stroke="rgb(32,31,27)" stroke-width="1" opacity="1" d="M 59.5 7 L 64.5 9 L 70 7 Q 68.9 9.7 71.5 9 L 76.5 16 L 79 16.5 L 76.5 17 L 71.5 10 L 67.5 8 L 66.5 10 Q 70.5 9.5 71 12.5 Q 70.3 15.1 73 14 L 73 16.5 L 73.5 18 L 68.5 11 Q 62.5 11 59.5 8 L 57 9.5 L 59.5 7 Z " /><path fill="rgb(32,31,27)" stroke="rgb(32,31,27)" stroke-width="1" opacity="1" d="M 60.5 10 L 61 12 L 58 11.5 L 60.5 10 Z " /><path fill="rgb(32,31,27)" stroke="rgb(32,31,27)" stroke-width="1" opacity="1" d="M 54 11 L 56 11.5 L 55.5 14 L 54 13.5 L 52.5 17 L 52 15.5 L 54 11 Z " /><path fill="rgb(32,31,27)" stroke="rgb(32,31,27)" stroke-width="1" opacity="1" d="M 80.5 15 L 85 16.5 L 82.5 17 L 80.5 15 Z " /><path fill="rgb(32,31,27)" stroke="rgb(32,31,27)" stroke-width="1" opacity="1" d="M 94.5 16 Q 105.8 13.8 108 20.5 Q 111.8 22.7 111 29.5 L 108 36 L 106 35.5 Q 110.6 33.1 110 25.5 L 104.5 18 Q 101.3 15.7 94.5 17 Q 93.3 19.3 88.5 18 L 88.5 17 Q 93.3 18.2 94.5 16 Z " /><path fill="rgb(32,31,27)" stroke="rgb(32,31,27)" stroke-width="1" opacity="1" d="M 48.5 17 L 49 18.5 L 48.5 20 L 52 20.5 L 45.5 21 L 44.5 19 L 48.5 17 Z " /><path fill="rgb(32,31,27)" stroke="rgb(32,31,27)" stroke-width="1" opacity="1" d="M 39.5 18 L 39.5 20 Q 43.3 19.3 44 21.5 L 42.5 21 Q 38.8 21.8 38 19.5 L 39.5 18 Z " /><path fill="rgb(32,31,27)" stroke="rgb(32,31,27)" stroke-width="1" opacity="1" d="M 55.5 18 L 56 22.5 L 55 22.5 L 55.5 18 Z " /><path fill="rgb(32,31,27)" stroke="rgb(32,31,27)" stroke-width="1" opacity="1" d="M 7.5 19 L 13 19.5 Q 7.6 18.6 6 21.5 L 6 24 Q 8.7 22.9 8 25.5 L 6.5 29 L 4.5 26 Q 5.8 28.3 7 25.5 L 5 25 Q 4 20.3 7.5 19 Z " /><path fill="rgb(32,31,27)" stroke="rgb(32,31,27)" stroke-width="1" opacity="1" d="M 14 19 L 17 20.5 L 19 23.5 L 20 25.5 L 20 27.5 L 19 33 L 17 32.5 L 19 29.5 L 17 28.5 L 14.5 32 L 15 30.5 L 17 26.5 L 15 23.5 L 17 24.5 L 17.5 26 L 19 24.5 L 15.5 21 Q 12.9 21.7 14 19 Z " /><path fill="rgb(32,31,27)" stroke="rgb(32,31,27)" stroke-width="1" opacity="1" d="M 33 19 L 35 19.5 L 33 20.5 L 33 19 Z " /><path fill="rgb(32,31,27)" stroke="rgb(32,31,27)" stroke-width="1" opacity="1" d="M 81 19 L 83 19.5 L 81 20.5 L 81 19 Z " /><path fill="rgb(32,31,27)" stroke="rgb(32,31,27)" stroke-width="1" opacity="1" d="M 92.5 19 L 95 20.5 L 90.5 22 L 90.5 21 Q 93 21.7 92.5 19 Z " /><path fill="rgb(32,31,27)" stroke="rgb(32,31,27)" stroke-width="1" opacity="1" d="M 84.5 20 L 86.5 23 L 84.5 20 Z " /><path fill="rgb(32,31,27)" stroke="rgb(32,31,27)" stroke-width="1" opacity="1" d="M 99.5 20 L 103 20.5 L 99.5 21 L 99.5 20 Z " /><path fill="rgb(32,31,27)" stroke="rgb(32,31,27)" stroke-width="1" opacity="1" d="M 10.5 21 L 14 22.5 L 8.5 23 L 8.5 22 L 10.5 21 Z " /><path fill="rgb(32,31,27)" stroke="rgb(32,31,27)" stroke-width="1" opacity="1" d="M 37.5 21 L 34 25.5 L 32 31.5 L 33 33.5 L 32 33.5 L 31 31.5 L 32 26.5 L 35.5 22 L 37.5 21 Z " /><path fill="rgb(32,31,27)" stroke="rgb(32,31,27)" stroke-width="1" opacity="1" d="M 53.5 21 L 53 22.5 L 56.5 28 L 59 26.5 L 56 26 Q 54.9 23.3 57.5 24 Q 59.1 27.9 65.5 27 L 69.5 25 L 69.5 26 L 61.5 29 L 61 27 L 58 28.5 L 65 30.5 L 59.5 31 L 54 28 L 52 22.5 L 53.5 21 Z " /><path fill="rgb(32,31,27)" stroke="rgb(32,31,27)" stroke-width="1" opacity="1" d="M 76.5 21 L 78.5 26 L 80 26.5 L 78.5 27 Q 74.7 25.7 76.5 21 Z " /><path fill="rgb(32,31,27)" stroke="rgb(32,31,27)" stroke-width="1" opacity="1" d="M 31 22 L 33 22.5 L 29.5 29 L 29 26.5 L 31 22 Z " /><path fill="rgb(32,31,27)" stroke="rgb(32,31,27)" stroke-width="1" opacity="1" d="M 105.5 22 Q 108.5 24 108 29.5 L 107.5 32 Q 105.3 31.3 106 33.5 L 105 37 L 107 37.5 L 105.5 38 L 103 34.5 L 105 34 L 107 26.5 Q 103.9 25.4 105.5 22 Z " /><path fill="rgb(32,31,27)" stroke="rgb(32,31,27)" stroke-width="1" opacity="1" d="M 84.5 24 L 84 25.5 L 82.5 28 L 81 27.5 L 84.5 24 Z " /><path fill="rgb(32,31,27)" stroke="rgb(32,31,27)" stroke-width="1" opacity="1" d="M 88.5 25 L 88 26.5 L 89 29.5 L 87.5 29 L 86 28.5 L 88.5 25 Z " /><path fill="rgb(32,31,27)" stroke="rgb(32,31,27)" stroke-width="1" opacity="1" d="M 71.5 26 Q 75 28 70.5 30 L 66 29.5 Q 70.6 30.1 72 27.5 L 71.5 26 Z " /><path fill="rgb(32,31,27)" stroke="rgb(32,31,27)" stroke-width="1" opacity="1" d="M 74.5 26 L 82.5 30 L 84.5 29 L 85.5 31 L 83.5 30 L 80.5 31 L 74 28 L 74.5 26 Z " /><path fill="rgb(32,31,27)" stroke="rgb(32,31,27)" stroke-width="1" opacity="1" d="M 88.5 31 L 87 33.5 L 90.5 37 L 93 36.5 L 90.5 33 L 93.5 36 L 94.5 35 L 96 35.5 L 95 38 L 100 39.5 L 96.5 40 Q 95.1 37.4 90.5 38 L 86 33.5 Q 85.3 31.3 87.5 32 L 88.5 31 Z " /><path fill="rgb(32,31,27)" stroke="rgb(32,31,27)" stroke-width="1" opacity="1" d="M 12.5 32 L 13 34.5 L 12.5 36 L 14.5 35 L 15 37 Q 9.4 39.2 11 33.5 L 12.5 32 Z " /><path fill="rgb(32,31,27)" stroke="rgb(32,31,27)" stroke-width="1" opacity="1" d="M 30.5 34 L 32 37.5 L 28.5 45 L 28 43.5 L 31 37.5 L 30 37.5 L 29.5 39 L 29 36.5 L 30.5 34 Z " /><path fill="rgb(32,31,27)" stroke="rgb(32,31,27)" stroke-width="1" opacity="1" d="M 97.5 36 L 100 36.5 L 97.5 37 L 97.5 36 Z " /><path fill="rgb(32,31,27)" stroke="rgb(32,31,27)" stroke-width="1" opacity="1" d="M 101.5 38 L 104.5 40 L 106 39.5 L 105.5 41 Q 107.8 41.8 107 39.5 L 108 39.5 L 104.5 47 L 101 46.5 L 105 46 Q 105.8 41 102.5 39 L 101.5 38 Z " /><path fill="rgb(32,31,27)" stroke="rgb(32,31,27)" stroke-width="1" opacity="1" d="M 27.5 40 L 28 41.5 L 25 51.5 Q 27.3 52.8 26 57.5 L 29 62.5 L 27 61.5 L 24 54.5 L 25 52.5 L 24 50.5 L 27.5 40 Z " /><path fill="rgb(32,31,27)" stroke="rgb(32,31,27)" stroke-width="1" opacity="1" d="M 11 41 L 14 42.5 Q 14.7 45.5 11 44 L 11 41 Z " /><path fill="rgb(32,31,27)" stroke="rgb(32,31,27)" stroke-width="1" opacity="1" d="M 55.5 41 Q 57.8 40.3 57 42.5 Q 55.5 45.5 54 42.5 L 55.5 41 Z " /><path fill="rgb(32,31,27)" stroke="rgb(32,31,27)" stroke-width="1" opacity="1" d="M 72.5 41 Q 75.5 42.5 72.5 44 Q 69.5 42.5 72.5 41 Z " /><path fill="rgb(32,31,27)" stroke="rgb(32,31,27)" stroke-width="1" opacity="1" d="M 108.5 42 L 111 49.5 L 111 54.5 L 111 56.5 L 108 64.5 L 105.5 67 L 102.5 65 L 97.5 68 L 98.5 66 L 104.5 62 L 103 64.5 L 104.5 66 Q 106.8 66.8 106 64.5 L 110 57.5 L 109 55.5 Q 111.2 54.3 110 49.5 Q 107 46.8 108.5 42 Z " /><path fill="rgb(32,31,27)" stroke="rgb(32,31,27)" stroke-width="1" opacity="1" d="M 37.5 46 L 38 49 L 33 48.5 L 37 48 L 37.5 46 Z " /><path fill="rgb(32,31,27)" stroke="rgb(32,31,27)" stroke-width="1" opacity="1" d="M 98.5 47 L 104 48.5 L 97.5 49 L 98.5 47 Z " /><path fill="rgb(32,31,27)" stroke="rgb(32,31,27)" stroke-width="1" opacity="1" d="M 29.5 48 L 32 48.5 L 29.5 49 L 29.5 48 Z " /><path fill="rgb(32,31,27)" stroke="rgb(32,31,27)" stroke-width="1" opacity="1" d="M 105.5 48 L 108 49.5 Q 109.5 55.5 106.5 57 L 107 55.5 Q 108.5 48.5 105.5 49 L 105.5 48 Z " /><path fill="rgb(32,31,27)" stroke="rgb(32,31,27)" stroke-width="1" opacity="1" d="M 28.5 50 L 29 51.5 L 27.5 54 L 27 52.5 L 28.5 50 Z " /><path fill="rgb(32,31,27)" stroke="rgb(32,31,27)" stroke-width="1" opacity="1" d="M 36.5 56 L 38 56 L 38 60 L 33.5 61 L 34.5 59 Q 37.8 60.1 37 57.5 L 35.5 58 L 32 57.5 L 36.5 56 Z " /><path fill="rgb(32,31,27)" stroke="rgb(32,31,27)" stroke-width="1" opacity="1" d="M 30.5 58 L 31 60.5 L 30 60.5 L 30.5 58 Z " /><path fill="rgb(32,31,27)" stroke="rgb(32,31,27)" stroke-width="1" opacity="1" d="M 96.5 58 L 100 58 Q 98.9 60.7 101.5 60 L 101.5 61 Q 94.5 62.5 95 59.5 L 96.5 58 Z M 97 59 L 97 60 L 99 60 L 97 59 Z " /><path fill="rgb(32,31,27)" stroke="rgb(32,31,27)" stroke-width="1" opacity="1" d="M 32.5 63 L 41 66 L 40.5 68 L 36.5 65 L 33.5 65 L 32.5 63 Z " /><path fill="rgb(32,31,27)" stroke="rgb(32,31,27)" stroke-width="1" opacity="1" d="M 28.5 67 L 29 68.5 L 25 76.5 L 29 81.5 L 27.5 82 Q 23.4 80.1 24 73.5 Q 26.8 72.4 26 69 Q 28.8 70 28.5 67 Z " /><path fill="rgb(32,31,27)" stroke="rgb(32,31,27)" stroke-width="1" opacity="1" d="M 32.5 67 L 29.5 71 L 32.5 67 Z " /><path fill="rgb(32,31,27)" stroke="rgb(32,31,27)" stroke-width="1" opacity="1" d="M 36.5 68 L 39 69.5 L 37.5 70 L 36.5 68 Z " /><path fill="rgb(32,31,27)" stroke="rgb(32,31,27)" stroke-width="1" opacity="1" d="M 42.5 68 L 51 69.5 L 46.5 70 L 42.5 69 L 42.5 68 Z " /><path fill="rgb(32,31,27)" stroke="rgb(32,31,27)" stroke-width="1" opacity="1" d="M 90.5 68 L 96 68.5 L 88.5 70 L 88.5 69 L 90.5 68 Z " /><path fill="rgb(32,31,27)" stroke="rgb(32,31,27)" stroke-width="1" opacity="1" d="M 58.5 69 L 61.5 70 L 64.5 69 L 64.5 70 L 59.5 71 L 58.5 69 Z " /><path fill="rgb(32,31,27)" stroke="rgb(32,31,27)" stroke-width="1" opacity="1" d="M 71.5 69 L 77 69.5 L 71.5 70 L 71.5 69 Z " /><path fill="rgb(32,31,27)" stroke="rgb(32,31,27)" stroke-width="1" opacity="1" d="M 80.5 69 L 87 69.5 L 79.5 71 L 80.5 69 Z " /><path fill="rgb(32,31,27)" stroke="rgb(32,31,27)" stroke-width="1" opacity="1" d="M 99.5 69 L 98.5 71 L 91 72 L 90.5 77 L 89 71.5 L 99.5 69 Z " /><path fill="rgb(32,31,27)" stroke="rgb(32,31,27)" stroke-width="1" opacity="1" d="M 103.5 69 L 106 82.5 L 101.5 90 L 101 88.5 L 105 82.5 L 105 78.5 L 103 72.5 L 103.5 69 Z " /><path fill="rgb(32,31,27)" stroke="rgb(32,31,27)" stroke-width="1" opacity="1" d="M 41.5 70 L 42.5 71 L 51 71 L 50.5 73 Q 48.8 70.3 42.5 72 L 41.5 70 Z " /><path fill="rgb(32,31,27)" stroke="rgb(32,31,27)" stroke-width="1" opacity="1" d="M 85.5 71 Q 87.8 70.3 87 72.5 L 85.5 71 Z " /><path fill="rgb(32,31,27)" stroke="rgb(32,31,27)" stroke-width="1" opacity="1" d="M 100.5 71 L 101 73.5 L 100 73.5 L 100.5 71 Z " /><path fill="rgb(32,31,27)" stroke="rgb(32,31,27)" stroke-width="1" opacity="1" d="M 28.5 72 L 29 73.5 L 27.5 76 L 27 74.5 L 28.5 72 Z " /><path fill="rgb(32,31,27)" stroke="rgb(32,31,27)" stroke-width="1" opacity="1" d="M 56.5 72 L 59 72.5 L 56.5 73 L 56.5 72 Z " /><path fill="rgb(32,31,27)" stroke="rgb(32,31,27)" stroke-width="1" opacity="1" d="M 62.5 72 L 74 72.5 L 62.5 73 L 62.5 72 Z " /><path fill="rgb(32,31,27)" stroke="rgb(32,31,27)" stroke-width="1" opacity="1" d="M 88.5 73 L 89 74.5 L 88 77.5 L 87.5 80 L 87 74.5 L 88.5 73 Z " /><path fill="rgb(32,31,27)" stroke="rgb(32,31,27)" stroke-width="1" opacity="1" d="M 100.5 76 L 101 77.5 L 98.5 81 L 98 79.5 L 100.5 76 Z " /><path fill="rgb(32,31,27)" stroke="rgb(32,31,27)" stroke-width="1" opacity="1" d="M 36.5 78 L 38 80.5 L 36 81.5 L 37 79.5 L 36.5 78 Z " /><path fill="rgb(32,31,27)" stroke="rgb(32,31,27)" stroke-width="1" opacity="1" d="M 89.5 78 L 92 81.5 L 89 79.5 L 89.5 78 Z " /><path fill="rgb(32,31,27)" stroke="rgb(32,31,27)" stroke-width="1" opacity="1" d="M 31.5 79 L 34 79.5 L 31 80 L 33 88 L 35 88.5 L 33.5 89 Q 29.6 86.9 30 80.5 L 31.5 79 Z " /><path fill="rgb(32,31,27)" stroke="rgb(32,31,27)" stroke-width="1" opacity="1" d="M 88.5 81 L 90 83.5 L 88 82.5 L 88.5 81 Z " /><path fill="rgb(32,31,27)" stroke="rgb(32,31,27)" stroke-width="1" opacity="1" d="M 93.5 82 Q 99.8 80.1 98 85 Q 95.3 86.1 96 83.5 L 95 83.5 L 94.5 86 L 91 83.5 L 93.5 82 Z " /><path fill="rgb(32,31,27)" stroke="rgb(32,31,27)" stroke-width="1" opacity="1" d="M 34.5 84 L 35 86 Q 37.7 84.9 37 87.5 L 34 85.5 L 34.5 84 Z " /><path fill="rgb(32,31,27)" stroke="rgb(32,31,27)" stroke-width="1" opacity="1" d="M 100.5 85 L 101 86.5 L 95.5 91 L 97.5 88 Q 99.8 88.8 99 86.5 L 100.5 85 Z " /><path fill="rgb(32,31,27)" stroke="rgb(32,31,27)" stroke-width="1" opacity="1" d="M 39.5 88 L 41 90.5 L 40 90.5 L 39.5 88 Z " /><path fill="rgb(32,31,27)" stroke="rgb(32,31,27)" stroke-width="1" opacity="1" d="M 35.5 91 Q 38.3 92.3 36 93.5 Q 35.5 97.5 38.5 98 L 41.5 99 L 42 97.5 L 39 95.5 L 40.5 95 Q 42 98.5 43.5 96 L 45 96.5 L 43 97 Q 41.6 101 48.5 99 Q 49.7 101.3 54.5 100 L 57 96.5 L 54.5 98 L 53 96.5 Q 52.3 94.3 54.5 95 L 58.5 94 L 58.5 95 L 57 95.5 L 58 97.5 L 57 100 Q 54.9 101.6 49.5 101 L 48.5 100 L 40.5 100 L 35 97 L 35.5 91 Z " /><path fill="rgb(32,31,27)" stroke="rgb(32,31,27)" stroke-width="1" opacity="1" d="M 45.5 91 L 48 91.5 L 45.5 92 L 45.5 91 Z " /><path fill="rgb(32,31,27)" stroke="rgb(32,31,27)" stroke-width="1" opacity="1" d="M 91.5 91 L 96.5 93 L 99.5 91 L 97.5 94 L 94.5 95 L 93.5 92 L 86.5 93 L 86.5 92 L 91.5 91 Z " /><path fill="rgb(32,31,27)" stroke="rgb(32,31,27)" stroke-width="1" opacity="1" d="M 39.5 92 L 47 93 L 46.5 95 L 39.5 93 L 39.5 92 Z " /><path fill="rgb(32,31,27)" stroke="rgb(32,31,27)" stroke-width="1" opacity="1" d="M 66.5 92 L 75 92.5 L 68.5 94 L 66.5 92 Z " /><path fill="rgb(32,31,27)" stroke="rgb(32,31,27)" stroke-width="1" opacity="1" d="M 81.5 92 L 83 92.5 L 80.5 94 L 81.5 92 Z " /><path fill="rgb(32,31,27)" stroke="rgb(32,31,27)" stroke-width="1" opacity="1" d="M 50.5 93 L 53 93.5 L 50.5 94 L 50.5 93 Z " /><path fill="rgb(32,31,27)" stroke="rgb(32,31,27)" stroke-width="1" opacity="1" d="M 62.5 94 L 63.5 96 L 61 95.5 L 62.5 94 Z " /><path fill="rgb(32,31,27)" stroke="rgb(32,31,27)" stroke-width="1" opacity="1" d="M 93.5 96 Q 95.8 95.3 95 97.5 L 92.5 101 L 90 100.5 L 94 97.5 L 93.5 96 Z " /><path fill="rgb(32,31,27)" stroke="rgb(32,31,27)" stroke-width="1" opacity="1" d="M 72.5 97 L 74.5 100 L 72 99 L 72.5 97 Z " /><path fill="rgb(32,31,27)" stroke="rgb(32,31,27)" stroke-width="1" opacity="1" d="M 81.5 98 L 84 98.5 L 82 99 Q 80.9 101.7 83.5 101 L 86.5 100 L 89 101.5 L 80.5 102 Q 77 100 81.5 98 Z " /><path fill="rgb(32,31,27)" stroke="rgb(32,31,27)" stroke-width="1" opacity="1" d="M 76.5 100 L 77.5 102 Q 74.7 102.7 76.5 100 Z " /><path fill="rgb(44,43,40)" stroke="rgb(44,43,40)" stroke-width="1" opacity="1" d="M 62 6 L 65.5 7 L 67 6.5 Q 66.3 8.8 68.5 8 L 71 8.5 L 70.5 10 L 72.5 11 L 74 10.5 L 73 12.5 L 75 12.5 L 74 14.5 L 76.5 15 L 81.5 16 L 83 15.5 L 82.5 17 L 93.5 18 L 93.5 17 L 90 16.5 L 93.5 16 L 94.5 17 L 102.5 17 L 105.5 19 Q 106.8 16.8 108 19.5 L 107 21.5 L 109.5 25 L 111 24.5 L 110 29.5 L 110.5 31 L 109 30.5 L 110 33.5 L 106 35.5 L 106.5 37 L 105 37.5 L 108 38.5 L 107 41 L 109 41.5 L 108 45.5 L 109 45.5 L 109.5 44 L 110 45.5 L 109 48.5 L 111 55.5 L 109 55.5 L 111 58.5 L 109 58.5 L 110 60.5 L 108 60.5 L 109 63.5 L 106 64.5 Q 106.8 66.8 104.5 66 Q 106.1 67.8 103 69.5 L 103.5 73 L 105 72.5 L 104 77.5 L 106 77.5 L 105 82.5 L 101 89.5 Q 103.3 90.8 100.5 92 L 98.5 92 L 95 93.5 L 96 96.5 L 94.5 96 L 93 96.5 L 94.5 99 Q 93 96.5 91.5 100 L 90 100.5 L 92 101.5 L 89.5 102 L 84.5 100 L 82 101 Q 80.9 98.3 83.5 99 L 90 96.5 L 85.5 95 L 79 96 L 78.5 94 L 78 96.5 L 81 98.5 Q 77.9 100.3 79.5 102 L 76.5 100 L 75 100.5 L 74.5 99 L 73 99.5 Q 75.3 98.3 72.5 97 L 71 97.5 L 70.5 95 L 67.5 96 L 65.5 96 L 63.5 95 L 58.5 96 Q 56.3 95.3 57 97.5 L 57.5 99 Q 56.3 96.8 55 99.5 L 55.5 101 Q 54.3 98.8 49.5 100 L 46.5 101 L 46.5 100 L 49 99.5 L 43 99 L 42.5 97 L 41.5 99 L 38.5 98 Q 37.3 100.3 36 97.5 L 36 95.5 L 37 92.5 L 34 91.5 L 35 88.5 L 33.5 88 L 32 88.5 L 33 85.5 L 30 84.5 L 31 80.5 L 30 80.5 L 29.5 83 L 26.5 79 L 25 79.5 L 26 77.5 L 24 77.5 L 26 72.5 L 25.5 71 L 27 71.5 L 28 69.5 L 27.5 68 L 29 68.5 Q 27.5 64.1 30.5 65 L 30.5 64 Q 26.5 64.5 26 61.5 L 26.5 60 L 27.5 62 L 28 59.5 L 25 58.5 Q 27.3 57.3 26 52.5 L 25 52.5 L 24.5 54 L 24 52.5 L 25 50.5 L 24.5 49 L 26 49.5 L 25 44.5 L 26 44.5 L 26.5 46 L 27 42.5 L 26.5 41 L 28 41.5 L 28.5 37 L 29.5 39 L 31.5 36 Q 34.1 35.2 33 38.5 L 32 38.5 L 31.5 37 L 31 39.5 L 31 41.5 L 30 46.5 L 31.5 46 L 34.5 47 L 37 46 L 37 48 L 33 48 Q 34.1 50.7 31.5 50 L 31.5 48 L 29 48.5 L 29.5 50 Q 27.3 49.3 28 51.5 L 29 53.5 L 27.5 56 L 35.5 58 L 35.5 56 L 37 59 L 34 59.5 L 34.5 61 Q 33.3 58.7 32 61.5 Q 35.1 63.2 33.5 65 L 37.5 66 L 39 65.5 L 38.5 67 L 40.5 68 L 43.5 67 L 43.5 68 L 42 68.5 L 45.5 69 L 47.5 68 L 47.5 69 L 46 69.5 L 50.5 70 L 52.5 69 L 54.5 70 L 57.5 69 L 60 69.5 L 59.5 71 L 62 70.5 L 61.5 69 L 64.5 70 Q 65.8 67.8 70.5 69 Q 71.8 71.2 76.5 70 L 79.5 69 Q 81 71.5 86.5 70 L 86.5 68 L 95.5 69 L 95.5 68 L 92 67.5 L 97.5 66 L 97.5 68 L 105 62.5 L 100 60 L 99 57.5 L 101.5 57 L 104.5 58 L 107 56.5 L 106.5 55 L 108 55.5 Q 109.5 49.5 106.5 48 L 104.5 49 L 98.5 47 L 97 47.5 L 102.5 45 L 102.5 46 L 101 46.5 L 104.5 47 L 104.5 45 L 106 45.5 L 107 41.5 L 104.5 40 L 102.5 40 L 95 38 Q 93.9 35.3 96.5 36 L 99.5 37 L 99.5 35 L 102.5 34 L 104.5 37 L 105 34.5 L 104.5 33 L 106 33.5 Q 105.3 31.3 107.5 32 L 106.5 29 L 108 29.5 L 107.5 26 L 106 26.5 L 107 24.5 L 106 22 Q 101.9 23.3 103 20 L 99.5 20 L 98 20.5 Q 98.7 17.9 96 19 L 95.5 21 L 92.5 19 L 92 20.5 L 92.5 22 L 90.5 21 L 88.5 27 L 87 26.5 L 86 28.5 L 90 30 L 94 35.5 L 90.5 37 L 88.5 37 L 86 34.5 L 87.5 32 L 85.5 33 L 84 30.5 L 84.5 29 L 79.5 31 L 79.5 29 L 77.5 30 L 77.5 28 L 75.5 29 L 74.5 26 L 73.5 28 Q 72 25.5 70.5 29 Q 65.1 27.1 66 30.5 L 64.5 30 L 58.5 29 L 57 29.5 L 57.5 28 L 54.5 26 L 53 26.5 L 54 24.5 L 52 24.5 L 53 22.5 L 52 20 L 48 19.5 L 49 17 L 53 17 L 53 15.5 L 52.5 14 L 54 14.5 L 53 12.5 L 56 11.5 Q 53.7 10.3 56.5 9 Q 58 11.5 59.5 8 Q 60.9 10.6 65.5 10 L 66.5 8 L 64.5 9 L 62 8 L 62 6 Z M 61 10 L 59 11 L 59 13 L 58 13 L 58 15 L 55 19 L 55 23 L 57 23 L 56 26 L 60 27 L 62 26 L 64 27 L 61 27 L 62 29 L 66 28 L 65 27 L 67 27 L 69 26 Q 71 27 70 25 L 72 25 L 72 24 L 74 24 L 73 19 L 73 17 L 73 14 Q 70 15 71 13 L 70 13 L 67 12 L 69 11 L 69 10 L 62 12 L 61 10 Z M 77 16 L 77 17 L 79 17 L 77 16 Z M 81 19 L 81 21 L 79 20 L 78 22 L 76 22 Q 75 26 79 27 L 83 25 L 81 28 L 83 28 L 85 23 Q 87 21 85 20 L 83 21 L 83 20 L 81 19 Z M 31 58 L 30 61 L 31 61 L 31 58 Z M 32 68 Q 29 69 31 71 L 30 73 L 28 73 L 29 77 L 32 78 L 31 80 L 34 80 L 34 78 L 37 80 L 34 86 L 36 85 L 37 88 L 39 87 L 40 91 L 41 91 Q 40 88 43 89 L 43 91 L 45 90 L 45 92 L 50 91 L 51 94 L 55 93 L 57 96 L 59 95 L 57 94 L 57 93 L 61 94 L 65 92 L 69 94 L 75 93 L 80 92 L 82 93 L 84 92 L 87 93 L 91 93 L 88 92 L 88 91 L 92 92 L 94 92 L 92 91 L 96 89 L 98 90 Q 100 89 98 88 L 100 88 L 101 86 L 98 85 Q 99 80 94 82 L 94 84 L 93 83 L 91 84 L 94 85 L 94 86 L 92 85 Q 89 86 90 84 L 88 84 L 89 82 L 87 82 L 88 78 L 88 76 L 89 74 L 87 74 Q 88 70 86 71 L 86 73 L 84 72 L 83 74 L 79 73 L 75 74 L 69 74 L 74 73 L 74 72 L 62 73 L 64 73 L 64 74 L 56 74 L 55 73 L 54 73 Q 55 75 53 74 L 51 71 L 43 71 L 42 70 L 39 71 L 39 69 L 37 70 L 34 68 L 32 68 Z M 100 69 L 89 72 L 91 80 Q 92 82 97 81 L 99 81 L 99 80 L 99 78 L 101 78 Q 102 75 99 76 Q 98 73 101 74 L 100 69 Z M 57 72 L 57 73 L 59 73 L 57 72 Z M 39 92 L 39 94 L 39 96 L 41 96 L 43 96 L 45 97 Q 47 96 45 95 L 47 95 L 47 93 L 39 92 Z M 54 95 L 50 97 L 54 97 Q 55 99 56 97 L 54 95 Z " /><path fill="rgb(44,43,40)" stroke="rgb(44,43,40)" stroke-width="1" opacity="1" d="M 40.5 17 Q 42 20.5 43.5 18 L 45 18.5 L 45 20.5 L 44.5 22 L 42.5 22 L 37.5 21 L 33 24.5 L 32 30.5 L 34 30.5 L 32 33.5 L 32.5 35 L 29 34 L 30 30.5 L 30 28.5 L 31 24.5 L 30.5 23 Q 31.7 25.3 33 22.5 L 32.5 21 L 38.5 18 L 40 18.5 L 40.5 17 Z M 40 20 L 40 21 L 43 21 L 40 20 Z " /><path fill="rgb(44,43,40)" stroke="rgb(44,43,40)" stroke-width="1" opacity="1" d="M 13.5 18 L 14 21 L 16.5 22 L 18 21.5 Q 15.8 22.8 18.5 24 L 20 23.5 L 17 27.5 L 19.5 26 L 21 27.5 L 20.5 29 L 19.5 27 L 18 28.5 L 19.5 31 L 18 30.5 L 15.5 35 L 12.5 36 L 13 34.5 L 13.5 31 Q 15.3 33.7 17 29.5 L 16 26.5 L 17 24.5 L 14 23.5 Q 14.8 21.3 12.5 22 L 10.5 21 L 8 22.5 L 8.5 24 Q 4.8 25.3 6 21.5 Q 7.6 18.5 13 20 L 13.5 18 Z " /><path fill="rgb(44,43,40)" stroke="rgb(44,43,40)" stroke-width="1" opacity="1" d="M 4.5 22 L 5 25 L 8 26.5 L 4 27.5 L 4 25.5 L 4.5 22 Z " /><path fill="rgb(44,43,40)" stroke="rgb(44,43,40)" stroke-width="1" opacity="1" d="M 10.5 41 L 11 44 L 13 44.5 L 11.5 45 Q 9 44 10.5 41 Z " /><path fill="rgb(44,43,40)" stroke="rgb(44,43,40)" stroke-width="1" opacity="1" d="M 13.5 41 L 12.5 43 L 13.5 41 Z " /><path fill="rgb(44,43,40)" stroke="rgb(44,43,40)" stroke-width="1" opacity="1" d="M 54.5 41 L 56.5 44 L 54.5 41 Z " /><path fill="rgb(44,43,40)" stroke="rgb(44,43,40)" stroke-width="1" opacity="1" d="M 71.5 41 L 74 41.5 L 73.5 44 L 71 43.5 L 71.5 41 Z " /><path fill="rgb(44,43,40)" stroke="rgb(44,43,40)" stroke-width="1" opacity="1" d="M 38.5 47 L 39 48.5 L 35.5 50 L 35.5 49 Q 39 50 38.5 47 Z " /><path fill="rgb(44,43,40)" stroke="rgb(44,43,40)" stroke-width="1" opacity="1" d="M 95.5 58 L 99 59.5 L 96.5 60 L 95.5 58 Z " /><path fill="rgb(44,43,40)" stroke="rgb(44,43,40)" stroke-width="1" opacity="1" d="M 95.5 83 L 96 85.5 L 95 85.5 L 95.5 83 Z " /><path fill="rgb(241,237,235)" stroke="rgb(241,237,235)" stroke-width="1" opacity="1" d="M 58.5 6 L 57.5 8 L 58.5 6 Z " /><path fill="rgb(241,237,235)" stroke="rgb(241,237,235)" stroke-width="1" opacity="1" d="M 54.5 9 L 53.5 11 L 54.5 9 Z " /><path fill="rgb(241,237,235)" stroke="rgb(241,237,235)" stroke-width="1" opacity="1" d="M 62.5 12 L 66 12.5 L 59.5 15 L 59 13 L 62.5 12 Z " /><path fill="rgb(241,237,235)" stroke="rgb(241,237,235)" stroke-width="1" opacity="1" d="M 67.5 13 L 71 15.5 L 70.5 17 L 68.5 14 L 67.5 13 Z " /><path fill="rgb(241,237,235)" stroke="rgb(241,237,235)" stroke-width="1" opacity="1" d="M 76.5 14 L 79 14.5 L 76.5 15 L 76.5 14 Z " /><path fill="rgb(241,237,235)" stroke="rgb(241,237,235)" stroke-width="1" opacity="1" d="M 95.5 14 L 103 14.5 L 95.5 15 L 95.5 14 Z " /><path fill="rgb(241,237,235)" stroke="rgb(241,237,235)" stroke-width="1" opacity="1" d="M 104.5 15 L 105.5 17 L 104.5 15 Z " /><path fill="rgb(241,237,235)" stroke="rgb(241,237,235)" stroke-width="1" opacity="1" d="M 47.5 16 L 46.5 18 L 45 17.5 L 47.5 16 Z " /><path fill="rgb(241,237,235)" stroke="rgb(241,237,235)" stroke-width="1" opacity="1" d="M 10.5 17 L 13 17.5 L 10.5 18 L 10.5 17 Z " /><path fill="rgb(241,237,235)" stroke="rgb(241,237,235)" stroke-width="1" opacity="1" d="M 16.5 18 L 19.5 22 L 16.5 18 Z " /><path fill="rgb(241,237,235)" stroke="rgb(241,237,235)" stroke-width="1" opacity="1" d="M 71.5 18 L 72 23 L 70 22.5 L 71.5 18 Z " /><path fill="rgb(241,237,235)" stroke="rgb(241,237,235)" stroke-width="1" opacity="1" d="M 4.5 20 L 3.5 22 L 4.5 20 Z " /><path fill="rgb(241,237,235)" stroke="rgb(241,237,235)" stroke-width="1" opacity="1" d="M 31.5 20 L 30.5 22 L 31.5 20 Z " /><path fill="rgb(241,237,235)" stroke="rgb(241,237,235)" stroke-width="1" opacity="1" d="M 82.5 21 L 84 23.5 L 82.5 25 L 78 24.5 L 78.5 22 L 80.5 22 L 82.5 21 Z " /><path fill="rgb(241,237,235)" stroke="rgb(241,237,235)" stroke-width="1" opacity="1" d="M 45.5 22 L 50 22.5 L 44.5 24 L 45.5 22 Z " /><path fill="rgb(241,237,235)" stroke="rgb(241,237,235)" stroke-width="1" opacity="1" d="M 98.5 22 L 102 22.5 L 98.5 23 L 98.5 22 Z " /><path fill="rgb(241,237,235)" stroke="rgb(241,237,235)" stroke-width="1" opacity="1" d="M 58.5 23 L 61 24.5 L 59.5 25 L 58.5 23 Z " /><path fill="rgb(241,237,235)" stroke="rgb(241,237,235)" stroke-width="1" opacity="1" d="M 68.5 23 L 67.5 25 L 66 24.5 L 68.5 23 Z " /><path fill="rgb(241,237,235)" stroke="rgb(241,237,235)" stroke-width="1" opacity="1" d="M 103.5 23 L 106 28.5 L 104.5 32 L 104 29.5 L 105 27.5 L 103.5 23 Z " /><path fill="rgb(241,237,235)" stroke="rgb(241,237,235)" stroke-width="1" opacity="1" d="M 11.5 24 L 15 25.5 L 13.5 25 Q 10.5 25.5 11.5 24 Z " /><path fill="rgb(241,237,235)" stroke="rgb(241,237,235)" stroke-width="1" opacity="1" d="M 111.5 24 L 112.5 26 L 111.5 24 Z " /><path fill="rgb(241,237,235)" stroke="rgb(241,237,235)" stroke-width="1" opacity="1" d="M 34.5 27 L 35 34.5 L 34 34.5 L 34.5 27 Z " /><path fill="rgb(241,237,235)" stroke="rgb(241,237,235)" stroke-width="1" opacity="1" d="M 89.5 27 L 90.5 29 L 89.5 27 Z " /><path fill="rgb(241,237,235)" stroke="rgb(241,237,235)" stroke-width="1" opacity="1" d="M 8.5 28 L 7.5 30 L 8.5 28 Z " /><path fill="rgb(241,237,235)" stroke="rgb(241,237,235)" stroke-width="1" opacity="1" d="M 72.5 29 L 71.5 31 L 72.5 29 Z " /><path fill="rgb(241,237,235)" stroke="rgb(241,237,235)" stroke-width="1" opacity="1" d="M 74.5 29 L 77 30.5 L 75.5 31 L 74.5 29 Z " /><path fill="rgb(241,237,235)" stroke="rgb(241,237,235)" stroke-width="1" opacity="1" d="M 96.5 33 L 98.5 34 L 100.5 33 L 100.5 34 L 97.5 35 L 96.5 33 Z " /><path fill="rgb(241,237,235)" stroke="rgb(241,237,235)" stroke-width="1" opacity="1" d="M 17.5 34 L 17 35.5 L 16.5 37 L 16 35.5 L 17.5 34 Z " /><path fill="rgb(241,237,235)" stroke="rgb(241,237,235)" stroke-width="1" opacity="1" d="M 109.5 35 L 108.5 37 L 109.5 35 Z " /><path fill="rgb(241,237,235)" stroke="rgb(241,237,235)" stroke-width="1" opacity="1" d="M 88.5 37 L 89.5 39 L 88.5 37 Z " /><path fill="rgb(241,237,235)" stroke="rgb(241,237,235)" stroke-width="1" opacity="1" d="M 91.5 39 L 94 39.5 L 91.5 40 L 91.5 39 Z " /><path fill="rgb(241,237,235)" stroke="rgb(241,237,235)" stroke-width="1" opacity="1" d="M 96.5 41 L 100 41.5 L 96.5 42 L 96.5 41 Z " /><path fill="rgb(241,237,235)" stroke="rgb(241,237,235)" stroke-width="1" opacity="1" d="M 110.5 42 L 111 44.5 L 110 44.5 L 110.5 42 Z " /><path fill="rgb(241,237,235)" stroke="rgb(241,237,235)" stroke-width="1" opacity="1" d="M 9.5 44 L 10.5 46 L 9.5 44 Z " /><path fill="rgb(241,237,235)" stroke="rgb(241,237,235)" stroke-width="1" opacity="1" d="M 30.5 44 L 38 44.5 L 30.5 45 L 30.5 44 Z " /><path fill="rgb(241,237,235)" stroke="rgb(241,237,235)" stroke-width="1" opacity="1" d="M 49.5 44 L 55 44.5 L 54.5 46 Q 57.5 45.1 56 49.5 L 55 53 L 50.5 54 L 48.5 54 L 45 50.5 L 45 48.5 L 49.5 44 Z " /><path fill="rgb(241,237,235)" stroke="rgb(241,237,235)" stroke-width="1" opacity="1" d="M 77.5 44 L 83 46.5 Q 84.5 53.5 80.5 55 L 74 54 L 73 47.5 L 77.5 44 Z " /><path fill="rgb(241,237,235)" stroke="rgb(241,237,235)" stroke-width="1" opacity="1" d="M 39.5 49 L 38.5 51 L 39.5 49 Z " /><path fill="rgb(241,237,235)" stroke="rgb(241,237,235)" stroke-width="1" opacity="1" d="M 33.5 50 L 36 50.5 L 33.5 51 L 33.5 50 Z " /><path fill="rgb(241,237,235)" stroke="rgb(241,237,235)" stroke-width="1" opacity="1" d="M 29.5 53 L 30 55.5 L 29 55.5 L 29.5 53 Z " /><path fill="rgb(241,237,235)" stroke="rgb(241,237,235)" stroke-width="1" opacity="1" d="M 31.5 55 L 35 55.5 L 31.5 56 L 31.5 55 Z " /><path fill="rgb(241,237,235)" stroke="rgb(241,237,235)" stroke-width="1" opacity="1" d="M 102.5 55 L 105 55.5 L 102.5 56 L 102.5 55 Z " /><path fill="rgb(241,237,235)" stroke="rgb(241,237,235)" stroke-width="1" opacity="1" d="M 25.5 61 L 28 64.5 L 25 62.5 L 25.5 61 Z " /><path fill="rgb(241,237,235)" stroke="rgb(241,237,235)" stroke-width="1" opacity="1" d="M 109.5 64 L 106.5 68 L 109.5 64 Z " /><path fill="rgb(241,237,235)" stroke="rgb(241,237,235)" stroke-width="1" opacity="1" d="M 90.5 66 L 95 66.5 L 90.5 67 L 90.5 66 Z " /><path fill="rgb(241,237,235)" stroke="rgb(241,237,235)" stroke-width="1" opacity="1" d="M 26.5 67 L 25.5 69 L 26.5 67 Z " /><path fill="rgb(241,237,235)" stroke="rgb(241,237,235)" stroke-width="1" opacity="1" d="M 48.5 67 L 51 67.5 L 48.5 68 L 48.5 67 Z " /><path fill="rgb(241,237,235)" stroke="rgb(241,237,235)" stroke-width="1" opacity="1" d="M 53.5 67 L 56 67.5 L 53.5 68 L 53.5 67 Z " /><path fill="rgb(241,237,235)" stroke="rgb(241,237,235)" stroke-width="1" opacity="1" d="M 62.5 67 L 65 67.5 L 62.5 68 L 62.5 67 Z " /><path fill="rgb(241,237,235)" stroke="rgb(241,237,235)" stroke-width="1" opacity="1" d="M 71.5 67 L 78 67.5 L 71.5 68 L 71.5 67 Z " /><path fill="rgb(241,237,235)" stroke="rgb(241,237,235)" stroke-width="1" opacity="1" d="M 80.5 67 L 86 67.5 L 80.5 68 L 80.5 67 Z " /><path fill="rgb(241,237,235)" stroke="rgb(241,237,235)" stroke-width="1" opacity="1" d="M 31.5 71 Q 31.3 75.3 34 76.5 L 30.5 78 L 30.5 77 L 33 76.5 Q 29.8 75.3 31.5 71 Z " /><path fill="rgb(241,237,235)" stroke="rgb(241,237,235)" stroke-width="1" opacity="1" d="M 92.5 73 L 93 75.5 L 92 75.5 L 92.5 73 Z " /><path fill="rgb(241,237,235)" stroke="rgb(241,237,235)" stroke-width="1" opacity="1" d="M 97.5 78 L 96.5 80 L 97.5 78 Z " /><path fill="rgb(241,237,235)" stroke="rgb(241,237,235)" stroke-width="1" opacity="1" d="M 25.5 81 L 26.5 83 L 25.5 81 Z " /><path fill="rgb(241,237,235)" stroke="rgb(241,237,235)" stroke-width="1" opacity="1" d="M 37.5 82 L 37 83.5 L 36.5 85 L 36 83.5 L 37.5 82 Z " /><path fill="rgb(241,237,235)" stroke="rgb(241,237,235)" stroke-width="1" opacity="1" d="M 30.5 87 L 31.5 89 L 30.5 87 Z " /><path fill="rgb(241,237,235)" stroke="rgb(241,237,235)" stroke-width="1" opacity="1" d="M 102.5 91 L 101.5 93 L 102.5 91 Z " /><path fill="rgb(241,237,235)" stroke="rgb(241,237,235)" stroke-width="1" opacity="1" d="M 33.5 92 L 34 94.5 L 33 94.5 L 33.5 92 Z " /><path fill="rgb(241,237,235)" stroke="rgb(241,237,235)" stroke-width="1" opacity="1" d="M 34.5 97 L 35.5 99 L 34.5 97 Z " /><path fill="rgb(241,237,235)" stroke="rgb(241,237,235)" stroke-width="1" opacity="1" d="M 81.5 103 L 85 103.5 L 81.5 104 L 81.5 103 Z " /><path fill="rgb(252,252,249)" stroke="rgb(252,252,249)" stroke-width="1" opacity="1" d="M 70.5 6 L 75 7.5 L 71.5 8 L 70.5 6 Z " /><path fill="rgb(252,252,249)" stroke="rgb(252,252,249)" stroke-width="1" opacity="1" d="M 74.5 9 L 75.5 11 L 74.5 9 Z " /><path fill="rgb(252,252,249)" stroke="rgb(252,252,249)" stroke-width="1" opacity="1" d="M 96.5 12 L 98 12.5 L 93.5 15 L 93.5 14 L 96.5 12 Z " /><path fill="rgb(252,252,249)" stroke="rgb(252,252,249)" stroke-width="1" opacity="1" d="M 84.5 14 L 87 15.5 L 85.5 15 L 84.5 14 Z " /><path fill="rgb(252,252,249)" stroke="rgb(252,252,249)" stroke-width="1" opacity="1" d="M 34 15 L 37 16.5 L 34.5 18 L 34 15 Z " /><path fill="rgb(252,252,249)" stroke="rgb(252,252,249)" stroke-width="1" opacity="1" d="M 32.5 18 L 31.5 20 L 30 19.5 L 32.5 18 Z " /><path fill="rgb(252,252,249)" stroke="rgb(252,252,249)" stroke-width="1" opacity="1" d="M 109.5 20 L 110.5 22 L 109.5 20 Z " /><path fill="rgb(252,252,249)" stroke="rgb(252,252,249)" stroke-width="1" opacity="1" d="M 112.5 20 L 114 23 L 111.5 24 L 112 22.5 L 112.5 20 Z " /><path fill="rgb(252,252,249)" stroke="rgb(252,252,249)" stroke-width="1" opacity="1" d="M 38.5 23 Q 42.7 21.9 41 26 L 37 26 Q 38.3 30.1 35 29 L 36 24 L 38.5 23 Z " /><path fill="rgb(252,252,249)" stroke="rgb(252,252,249)" stroke-width="1" opacity="1" d="M 2.5 25 L 5 29.5 L 2 27.5 L 2.5 25 Z " /><path fill="rgb(252,252,249)" stroke="rgb(252,252,249)" stroke-width="1" opacity="1" d="M 21.5 25 Q 24 26 23 30.5 L 20 32.5 Q 19.3 29.9 22 31 L 22 26.5 L 21.5 25 Z " /><path fill="rgb(252,252,249)" stroke="rgb(252,252,249)" stroke-width="1" opacity="1" d="M 50.5 25 Q 52.8 24.3 52 26.5 L 50.5 25 Z " /><path fill="rgb(252,252,249)" stroke="rgb(252,252,249)" stroke-width="1" opacity="1" d="M 14.5 26 L 15 28 L 13 27.5 L 14.5 26 Z " /><path fill="rgb(252,252,249)" stroke="rgb(252,252,249)" stroke-width="1" opacity="1" d="M 27.5 26 L 28 27.5 L 26 28.5 L 27.5 26 Z " /><path fill="rgb(252,252,249)" stroke="rgb(252,252,249)" stroke-width="1" opacity="1" d="M 53.5 28 L 56.5 32 L 53.5 28 Z " /><path fill="rgb(252,252,249)" stroke="rgb(252,252,249)" stroke-width="1" opacity="1" d="M 73.5 29 Q 77 31 72.5 33 L 71.5 31 L 73 31.5 L 73.5 29 Z " /><path fill="rgb(252,252,249)" stroke="rgb(252,252,249)" stroke-width="1" opacity="1" d="M 6.5 30 L 11 31.5 L 6 32 L 6.5 30 Z " /><path fill="rgb(252,252,249)" stroke="rgb(252,252,249)" stroke-width="1" opacity="1" d="M 66.5 31 L 67.5 33 L 66.5 31 Z " /><path fill="rgb(252,252,249)" stroke="rgb(252,252,249)" stroke-width="1" opacity="1" d="M 83.5 31 L 84 34 Q 78.8 35.7 80 32 L 83.5 31 Z " /><path fill="rgb(252,252,249)" stroke="rgb(252,252,249)" stroke-width="1" opacity="1" d="M 111.5 31 L 113 34 Q 110.3 32.9 111 35.5 L 110 35.5 L 112 32.5 L 111.5 31 Z " /><path fill="rgb(252,252,249)" stroke="rgb(252,252,249)" stroke-width="1" opacity="1" d="M 33.5 35 Q 35.8 34.3 35 36.5 L 33.5 35 Z " /><path fill="rgb(252,252,249)" stroke="rgb(252,252,249)" stroke-width="1" opacity="1" d="M 85.5 35 L 87.5 38 L 85.5 35 Z " /><path fill="rgb(252,252,249)" stroke="rgb(252,252,249)" stroke-width="1" opacity="1" d="M 15.5 37 L 16 39.5 L 15 39.5 L 15.5 37 Z " /><path fill="rgb(252,252,249)" stroke="rgb(252,252,249)" stroke-width="1" opacity="1" d="M 108.5 37 L 109.5 39 L 108.5 37 Z " /><path fill="rgb(252,252,249)" stroke="rgb(252,252,249)" stroke-width="1" opacity="1" d="M 26.5 38 L 25.5 40 L 26.5 38 Z " /><path fill="rgb(252,252,249)" stroke="rgb(252,252,249)" stroke-width="1" opacity="1" d="M 49 39 L 52.5 41 L 55 39.5 L 53 42.5 L 53.5 44 L 49.5 44 L 44.5 48 L 46 45.5 Q 45.3 43.3 47.5 44 L 51 42.5 L 49 39 Z " /><path fill="rgb(252,252,249)" stroke="rgb(252,252,249)" stroke-width="1" opacity="1" d="M 94.5 40 L 95.5 42 L 94.5 40 Z " /><path fill="rgb(252,252,249)" stroke="rgb(252,252,249)" stroke-width="1" opacity="1" d="M 32.5 41 L 33 43 L 37 43.5 L 32.5 44 Q 29.5 42.5 32.5 41 Z " /><path fill="rgb(252,252,249)" stroke="rgb(252,252,249)" stroke-width="1" opacity="1" d="M 100 41 L 104 42.5 Q 104.8 45.1 101.5 44 L 100 41 Z " /><path fill="rgb(252,252,249)" stroke="rgb(252,252,249)" stroke-width="1" opacity="1" d="M 75.5 42 L 84 44 L 85 46.5 Q 82.5 48 84 53.5 L 82 55.5 L 83.5 58 L 80 57.5 L 80.5 56 L 77 54.5 L 78.5 55 Q 82.5 55.5 83 52.5 Q 84.5 46.5 81.5 45 L 77.5 44 L 73 47.5 L 74 53.5 L 73 53.5 L 71 45 L 73.5 46 L 75.5 42 Z " /><path fill="rgb(252,252,249)" stroke="rgb(252,252,249)" stroke-width="1" opacity="1" d="M 38.5 44 L 39.5 46 L 38.5 44 Z " /><path fill="rgb(252,252,249)" stroke="rgb(252,252,249)" stroke-width="1" opacity="1" d="M 95.5 44 L 97 46.5 L 95 47 L 95.5 44 Z " /><path fill="rgb(252,252,249)" stroke="rgb(252,252,249)" stroke-width="1" opacity="1" d="M 111.5 44 L 112 48.5 L 111 48.5 L 111.5 44 Z " /><path fill="rgb(252,252,249)" stroke="rgb(252,252,249)" stroke-width="1" opacity="1" d="M 54.5 45 L 57 46.5 L 58 52.5 Q 57.3 54.8 53.5 54 L 53.5 53 Q 56.1 53.8 55 50.5 L 56 46 L 54.5 45 Z " /><path fill="rgb(252,252,249)" stroke="rgb(252,252,249)" stroke-width="1" opacity="1" d="M 44.5 49 L 48 53.5 L 46.5 54 L 44.5 54 L 39.5 53 L 39 54.5 L 42 55.5 Q 41.3 58.1 44 57 L 44 59.5 L 41 62.5 L 43.5 66 Q 39.8 67.3 41 63.5 L 38 62.5 L 41 58.5 L 37.5 52 L 36 52.5 Q 35.1 49.5 39.5 51 Q 41 54.5 42.5 52 Q 45.4 52.7 44.5 49 Z " /><path fill="rgb(252,252,249)" stroke="rgb(252,252,249)" stroke-width="1" opacity="1" d="M 97.5 50 L 100 50.5 L 97.5 51 L 97.5 50 Z " /><path fill="rgb(252,252,249)" stroke="rgb(252,252,249)" stroke-width="1" opacity="1" d="M 104.5 50 Q 106.8 49.3 106 51.5 L 104.5 50 Z " /><path fill="rgb(252,252,249)" stroke="rgb(252,252,249)" stroke-width="1" opacity="1" d="M 31.5 51 L 35 51.5 L 34.5 54 L 32.5 54 Q 30.3 53.3 31 55.5 L 30 55.5 Q 29.3 51.8 31.5 51 Z " /><path fill="rgb(252,252,249)" stroke="rgb(252,252,249)" stroke-width="1" opacity="1" d="M 95.5 56 L 94.5 58 L 95.5 56 Z " /><path fill="rgb(252,252,249)" stroke="rgb(252,252,249)" stroke-width="1" opacity="1" d="M 23 59 Q 26.3 57.7 25 62.5 L 25.5 64 Q 22.9 64.8 24 61.5 L 23 59 Z " /><path fill="rgb(252,252,249)" stroke="rgb(252,252,249)" stroke-width="1" opacity="1" d="M 35 61 Q 38 60 37 63 Q 34 64 35 61 Z " /><path fill="rgb(252,252,249)" stroke="rgb(252,252,249)" stroke-width="1" opacity="1" d="M 111.5 65 L 110.5 67 L 109 66.5 L 111.5 65 Z " /><path fill="rgb(252,252,249)" stroke="rgb(252,252,249)" stroke-width="1" opacity="1" d="M 26.5 66 L 25 68.5 L 24.5 70 L 24 68.5 L 26.5 66 Z " /><path fill="rgb(252,252,249)" stroke="rgb(252,252,249)" stroke-width="1" opacity="1" d="M 57.5 67 L 60 67.5 L 57.5 68 L 57.5 67 Z " /><path fill="rgb(252,252,249)" stroke="rgb(252,252,249)" stroke-width="1" opacity="1" d="M 106.5 68 Q 108.8 67.3 108 69.5 L 106.5 68 Z " /><path fill="rgb(252,252,249)" stroke="rgb(252,252,249)" stroke-width="1" opacity="1" d="M 30.5 72 L 33 76.5 L 31.5 77 Q 28.8 75.8 30.5 72 Z " /><path fill="rgb(252,252,249)" stroke="rgb(252,252,249)" stroke-width="1" opacity="1" d="M 94.5 72 L 96 72.5 Q 93.7 73.8 95 78.5 L 97 78.5 L 93 80 L 92 76.5 L 94.5 72 Z " /><path fill="rgb(252,252,249)" stroke="rgb(252,252,249)" stroke-width="1" opacity="1" d="M 97.5 72 L 98.5 74 L 97.5 72 Z " /><path fill="rgb(252,252,249)" stroke="rgb(252,252,249)" stroke-width="1" opacity="1" d="M 106.5 74 L 107.5 76 L 109 75.5 L 108 77.5 L 109 80.5 L 107.5 85 L 106.5 74 Z " /><path fill="rgb(252,252,249)" stroke="rgb(252,252,249)" stroke-width="1" opacity="1" d="M 23.5 79 L 26.5 83 L 29 83.5 Q 27.8 86.3 26.5 84 Q 24.3 84.8 25 82.5 Q 22 81.5 23.5 79 Z " /><path fill="rgb(252,252,249)" stroke="rgb(252,252,249)" stroke-width="1" opacity="1" d="M 105.5 86 Q 108.5 87.5 105.5 89 L 104 88.5 L 106 87.5 L 105.5 86 Z " /><path fill="rgb(252,252,249)" stroke="rgb(252,252,249)" stroke-width="1" opacity="1" d="M 103 90 Q 105.7 88.9 105 91.5 L 101.5 96 L 100 93.5 L 103 91.5 L 103 90 Z " /><path fill="rgb(252,252,249)" stroke="rgb(252,252,249)" stroke-width="1" opacity="1" d="M 66 97 Q 69.8 96 71 98.5 L 66 99 L 66 97 Z " /><path fill="rgb(252,252,249)" stroke="rgb(252,252,249)" stroke-width="1" opacity="1" d="M 96.5 97 L 99 97.5 L 100 101 Q 95.9 102.7 97 98.5 L 96.5 97 Z " /><path fill="rgb(252,252,249)" stroke="rgb(252,252,249)" stroke-width="1" opacity="1" d="M 103 98 Q 106 97 105 100 Q 102 101 103 98 Z " /><path fill="rgb(252,252,249)" stroke="rgb(252,252,249)" stroke-width="1" opacity="1" d="M 58.5 99 L 59.5 101 L 57 100.5 L 58.5 99 Z " /><path fill="rgb(252,252,249)" stroke="rgb(252,252,249)" stroke-width="1" opacity="1" d="M 93.5 101 L 92.5 103 L 93.5 101 Z " /><path fill="rgb(106,102,99)" stroke="rgb(106,102,99)" stroke-width="1" opacity="1" d="M 58.5 7 L 57.5 9 L 58.5 7 Z " /><path fill="rgb(106,102,99)" stroke="rgb(106,102,99)" stroke-width="1" opacity="1" d="M 71.5 8 L 72.5 10 L 71.5 8 Z " /><path fill="rgb(106,102,99)" stroke="rgb(106,102,99)" stroke-width="1" opacity="1" d="M 55.5 9 L 54.5 11 L 55.5 9 Z " /><path fill="rgb(106,102,99)" stroke="rgb(106,102,99)" stroke-width="1" opacity="1" d="M 59.5 12 L 61 12.5 L 58.5 14 L 59.5 12 Z " /><path fill="rgb(106,102,99)" stroke="rgb(106,102,99)" stroke-width="1" opacity="1" d="M 70.5 14 L 73 17.5 L 71 16.5 L 70.5 14 Z " /><path fill="rgb(106,102,99)" stroke="rgb(106,102,99)" stroke-width="1" opacity="1" d="M 83.5 15 L 86 16.5 L 84.5 16 L 83.5 15 Z " /><path fill="rgb(106,102,99)" stroke="rgb(106,102,99)" stroke-width="1" opacity="1" d="M 94.5 15 L 98 15.5 L 94.5 16 L 94.5 15 Z " /><path fill="rgb(106,102,99)" stroke="rgb(106,102,99)" stroke-width="1" opacity="1" d="M 99.5 15 Q 105 14 106 17.5 L 103.5 16 Q 98.5 17 99.5 15 Z " /><path fill="rgb(106,102,99)" stroke="rgb(106,102,99)" stroke-width="1" opacity="1" d="M 37.5 17 L 40 17.5 L 37.5 18 L 37.5 17 Z " /><path fill="rgb(106,102,99)" stroke="rgb(106,102,99)" stroke-width="1" opacity="1" d="M 47.5 17 L 46.5 19 L 45 18.5 L 47.5 17 Z " /><path fill="rgb(106,102,99)" stroke="rgb(106,102,99)" stroke-width="1" opacity="1" d="M 56.5 17 L 57 21.5 L 56 21.5 L 56.5 17 Z " /><path fill="rgb(106,102,99)" stroke="rgb(106,102,99)" stroke-width="1" opacity="1" d="M 9.5 18 L 13 18.5 L 9.5 19 L 9.5 18 Z " /><path fill="rgb(106,102,99)" stroke="rgb(106,102,99)" stroke-width="1" opacity="1" d="M 6.5 19 L 4.5 22 L 6.5 19 Z " /><path fill="rgb(106,102,99)" stroke="rgb(106,102,99)" stroke-width="1" opacity="1" d="M 72.5 20 L 73 22.5 L 72 22.5 L 72.5 20 Z " /><path fill="rgb(106,102,99)" stroke="rgb(106,102,99)" stroke-width="1" opacity="1" d="M 18.5 21 L 19.5 23 L 18.5 21 Z " /><path fill="rgb(106,102,99)" stroke="rgb(106,102,99)" stroke-width="1" opacity="1" d="M 31.5 21 L 30.5 23 L 31.5 21 Z " /><path fill="rgb(106,102,99)" stroke="rgb(106,102,99)" stroke-width="1" opacity="1" d="M 45.5 21 L 52 21.5 L 44.5 23 L 45.5 21 Z " /><path fill="rgb(106,102,99)" stroke="rgb(106,102,99)" stroke-width="1" opacity="1" d="M 108.5 21 L 109.5 23 L 108.5 21 Z " /><path fill="rgb(106,102,99)" stroke="rgb(106,102,99)" stroke-width="1" opacity="1" d="M 37.5 22 L 36.5 24 L 37.5 22 Z " /><path fill="rgb(106,102,99)" stroke="rgb(106,102,99)" stroke-width="1" opacity="1" d="M 77.5 22 L 78 25 L 80 25.5 L 78.5 26 Q 76 25 77.5 22 Z " /><path fill="rgb(106,102,99)" stroke="rgb(106,102,99)" stroke-width="1" opacity="1" d="M 9.5 23 L 8.5 25 L 9.5 23 Z " /><path fill="rgb(106,102,99)" stroke="rgb(106,102,99)" stroke-width="1" opacity="1" d="M 11.5 23 L 14 23.5 L 11.5 24 L 11.5 23 Z " /><path fill="rgb(106,102,99)" stroke="rgb(106,102,99)" stroke-width="1" opacity="1" d="M 84.5 23 L 83.5 25 L 84.5 23 Z " /><path fill="rgb(106,102,99)" stroke="rgb(106,102,99)" stroke-width="1" opacity="1" d="M 20.5 24 L 21 26.5 L 20 26.5 L 20.5 24 Z " /><path fill="rgb(106,102,99)" stroke="rgb(106,102,99)" stroke-width="1" opacity="1" d="M 34.5 25 L 35 26.5 L 33.5 30 L 33 27.5 L 34.5 25 Z " /><path fill="rgb(106,102,99)" stroke="rgb(106,102,99)" stroke-width="1" opacity="1" d="M 28.5 27 L 29 32.5 L 28 32.5 L 28.5 27 Z " /><path fill="rgb(106,102,99)" stroke="rgb(106,102,99)" stroke-width="1" opacity="1" d="M 55.5 28 L 56.5 30 L 55.5 28 Z " /><path fill="rgb(106,102,99)" stroke="rgb(106,102,99)" stroke-width="1" opacity="1" d="M 72.5 28 L 71.5 30 L 72.5 28 Z " /><path fill="rgb(106,102,99)" stroke="rgb(106,102,99)" stroke-width="1" opacity="1" d="M 83.5 30 L 82.5 32 L 80 31.5 L 83.5 30 Z " /><path fill="rgb(106,102,99)" stroke="rgb(106,102,99)" stroke-width="1" opacity="1" d="M 105.5 30 L 106 31.5 L 103 33.5 L 105.5 30 Z " /><path fill="rgb(106,102,99)" stroke="rgb(106,102,99)" stroke-width="1" opacity="1" d="M 90.5 31 Q 92.9 35.1 99 35.5 L 96.5 36 Q 91.2 35 90.5 31 Z " /><path fill="rgb(106,102,99)" stroke="rgb(106,102,99)" stroke-width="1" opacity="1" d="M 11.5 32 L 11 33.5 L 10.5 36 L 10 33.5 L 11.5 32 Z " /><path fill="rgb(106,102,99)" stroke="rgb(106,102,99)" stroke-width="1" opacity="1" d="M 17.5 33 L 15.5 36 L 17.5 33 Z " /><path fill="rgb(106,102,99)" stroke="rgb(106,102,99)" stroke-width="1" opacity="1" d="M 29.5 34 L 30 35.5 L 28 36.5 L 29.5 34 Z " /><path fill="rgb(106,102,99)" stroke="rgb(106,102,99)" stroke-width="1" opacity="1" d="M 108.5 35 L 108 36.5 L 107.5 38 L 107 36.5 L 108.5 35 Z " /><path fill="rgb(106,102,99)" stroke="rgb(106,102,99)" stroke-width="1" opacity="1" d="M 91.5 38 L 95 39.5 L 93.5 39 Q 90.5 39.5 91.5 38 Z " /><path fill="rgb(106,102,99)" stroke="rgb(106,102,99)" stroke-width="1" opacity="1" d="M 27.5 39 L 26.5 41 L 27.5 39 Z " /><path fill="rgb(106,102,99)" stroke="rgb(106,102,99)" stroke-width="1" opacity="1" d="M 96.5 40 L 100 40.5 L 96.5 41 L 96.5 40 Z " /><path fill="rgb(106,102,99)" stroke="rgb(106,102,99)" stroke-width="1" opacity="1" d="M 14.5 42 L 15 43.5 L 13 44.5 L 14.5 42 Z " /><path fill="rgb(106,102,99)" stroke="rgb(106,102,99)" stroke-width="1" opacity="1" d="M 30.5 45 Q 37.3 43.3 39 46.5 L 37.5 46 L 30.5 46 L 30.5 45 Z " /><path fill="rgb(106,102,99)" stroke="rgb(106,102,99)" stroke-width="1" opacity="1" d="M 24.5 46 L 25 48.5 L 24 48.5 L 24.5 46 Z " /><path fill="rgb(106,102,99)" stroke="rgb(106,102,99)" stroke-width="1" opacity="1" d="M 110.5 46 L 111 48.5 L 110 48.5 L 110.5 46 Z " /><path fill="rgb(106,102,99)" stroke="rgb(106,102,99)" stroke-width="1" opacity="1" d="M 96.5 48 L 99 49.5 L 97.5 50 L 96.5 48 Z " /><path fill="rgb(106,102,99)" stroke="rgb(106,102,99)" stroke-width="1" opacity="1" d="M 102.5 49 L 105 49.5 L 102.5 50 L 102.5 49 Z " /><path fill="rgb(106,102,99)" stroke="rgb(106,102,99)" stroke-width="1" opacity="1" d="M 106.5 52 L 107 54.5 L 106 54.5 L 106.5 52 Z " /><path fill="rgb(106,102,99)" stroke="rgb(106,102,99)" stroke-width="1" opacity="1" d="M 111.5 52 L 112 54.5 L 111 54.5 L 111.5 52 Z " /><path fill="rgb(106,102,99)" stroke="rgb(106,102,99)" stroke-width="1" opacity="1" d="M 24.5 55 L 25 57.5 L 24 57.5 L 24.5 55 Z " /><path fill="rgb(106,102,99)" stroke="rgb(106,102,99)" stroke-width="1" opacity="1" d="M 31.5 56 L 35 56.5 L 31.5 57 L 31.5 56 Z " /><path fill="rgb(106,102,99)" stroke="rgb(106,102,99)" stroke-width="1" opacity="1" d="M 103.5 56 L 106 56.5 L 103.5 57 L 103.5 56 Z " /><path fill="rgb(106,102,99)" stroke="rgb(106,102,99)" stroke-width="1" opacity="1" d="M 96.5 57 L 99 57.5 L 96.5 58 L 96.5 57 Z " /><path fill="rgb(106,102,99)" stroke="rgb(106,102,99)" stroke-width="1" opacity="1" d="M 38.5 59 L 37.5 61 L 35 60.5 L 38.5 59 Z " /><path fill="rgb(106,102,99)" stroke="rgb(106,102,99)" stroke-width="1" opacity="1" d="M 32.5 61 L 34.5 64 L 32.5 61 Z " /><path fill="rgb(106,102,99)" stroke="rgb(106,102,99)" stroke-width="1" opacity="1" d="M 96.5 61 L 102 61.5 L 96.5 62 L 96.5 61 Z " /><path fill="rgb(106,102,99)" stroke="rgb(106,102,99)" stroke-width="1" opacity="1" d="M 103.5 61 L 104 62.5 L 101 64.5 L 103.5 61 Z " /><path fill="rgb(106,102,99)" stroke="rgb(106,102,99)" stroke-width="1" opacity="1" d="M 27.5 63 L 28.5 65 L 27.5 63 Z " /><path fill="rgb(106,102,99)" stroke="rgb(106,102,99)" stroke-width="1" opacity="1" d="M 108.5 64 L 105.5 68 L 108.5 64 Z " /><path fill="rgb(106,102,99)" stroke="rgb(106,102,99)" stroke-width="1" opacity="1" d="M 28.5 66 L 26.5 69 L 28.5 66 Z " /><path fill="rgb(106,102,99)" stroke="rgb(106,102,99)" stroke-width="1" opacity="1" d="M 33.5 68 L 36 69.5 L 34.5 69 L 33.5 68 Z " /><path fill="rgb(106,102,99)" stroke="rgb(106,102,99)" stroke-width="1" opacity="1" d="M 48.5 68 L 51 68.5 L 48.5 69 L 48.5 68 Z " /><path fill="rgb(106,102,99)" stroke="rgb(106,102,99)" stroke-width="1" opacity="1" d="M 53.5 68 L 56 68.5 L 53.5 69 L 53.5 68 Z " /><path fill="rgb(106,102,99)" stroke="rgb(106,102,99)" stroke-width="1" opacity="1" d="M 62.5 68 L 65 68.5 L 62.5 69 L 62.5 68 Z " /><path fill="rgb(106,102,99)" stroke="rgb(106,102,99)" stroke-width="1" opacity="1" d="M 71.5 68 L 78 68.5 L 71.5 69 L 71.5 68 Z " /><path fill="rgb(106,102,99)" stroke="rgb(106,102,99)" stroke-width="1" opacity="1" d="M 80.5 68 L 86 68.5 L 80.5 69 L 80.5 68 Z " /><path fill="rgb(106,102,99)" stroke="rgb(106,102,99)" stroke-width="1" opacity="1" d="M 104.5 69 L 105 71.5 L 104 71.5 L 104.5 69 Z " /><path fill="rgb(106,102,99)" stroke="rgb(106,102,99)" stroke-width="1" opacity="1" d="M 99.5 70 L 100 73.5 L 99 73.5 L 99.5 70 Z " /><path fill="rgb(106,102,99)" stroke="rgb(106,102,99)" stroke-width="1" opacity="1" d="M 94.5 71 L 98 71.5 L 94.5 72 L 94.5 71 Z " /><path fill="rgb(106,102,99)" stroke="rgb(106,102,99)" stroke-width="1" opacity="1" d="M 44.5 72 L 49 72.5 L 44.5 73 L 44.5 72 Z " /><path fill="rgb(106,102,99)" stroke="rgb(106,102,99)" stroke-width="1" opacity="1" d="M 64.5 73 L 69 73.5 L 64.5 74 L 64.5 73 Z " /><path fill="rgb(106,102,99)" stroke="rgb(106,102,99)" stroke-width="1" opacity="1" d="M 75.5 73 L 79 73.5 L 75.5 74 L 75.5 73 Z " /><path fill="rgb(106,102,99)" stroke="rgb(106,102,99)" stroke-width="1" opacity="1" d="M 105.5 74 L 106 76.5 L 105 76.5 L 105.5 74 Z " /><path fill="rgb(106,102,99)" stroke="rgb(106,102,99)" stroke-width="1" opacity="1" d="M 86.5 75 L 87 79.5 L 86 79.5 L 86.5 75 Z " /><path fill="rgb(106,102,99)" stroke="rgb(106,102,99)" stroke-width="1" opacity="1" d="M 36.5 77 L 37.5 79 L 36.5 77 Z " /><path fill="rgb(106,102,99)" stroke="rgb(106,102,99)" stroke-width="1" opacity="1" d="M 98.5 78 L 96.5 81 L 98.5 78 Z " /><path fill="rgb(106,102,99)" stroke="rgb(106,102,99)" stroke-width="1" opacity="1" d="M 91.5 79 L 92.5 81 L 91.5 79 Z " /><path fill="rgb(106,102,99)" stroke="rgb(106,102,99)" stroke-width="1" opacity="1" d="M 25.5 80 L 26.5 82 L 25.5 80 Z " /><path fill="rgb(106,102,99)" stroke="rgb(106,102,99)" stroke-width="1" opacity="1" d="M 37.5 81 L 36 83.5 L 38 86.5 L 35 84.5 L 37.5 81 Z " /><path fill="rgb(106,102,99)" stroke="rgb(106,102,99)" stroke-width="1" opacity="1" d="M 28.5 82 L 29.5 84 L 28.5 82 Z " /><path fill="rgb(106,102,99)" stroke="rgb(106,102,99)" stroke-width="1" opacity="1" d="M 30.5 85 L 32 87.5 L 30 86.5 L 30.5 85 Z " /><path fill="rgb(106,102,99)" stroke="rgb(106,102,99)" stroke-width="1" opacity="1" d="M 96.5 85 L 99 85.5 L 96.5 86 L 96.5 85 Z " /><path fill="rgb(106,102,99)" stroke="rgb(106,102,99)" stroke-width="1" opacity="1" d="M 39.5 87 L 40.5 89 L 39.5 87 Z " /><path fill="rgb(106,102,99)" stroke="rgb(106,102,99)" stroke-width="1" opacity="1" d="M 45.5 90 L 49.5 90 Q 50.2 92.8 54.5 92 L 56.5 91 L 58.5 91 L 61.5 92 L 64.5 91 L 87 91.5 L 64.5 92 L 63.5 93 L 61.5 93 L 59.5 92 L 55.5 94 L 49.5 91 L 45.5 91 L 45.5 90 Z " /><path fill="rgb(106,102,99)" stroke="rgb(106,102,99)" stroke-width="1" opacity="1" d="M 34.5 92 L 35 94.5 L 34 94.5 L 34.5 92 Z " /><path fill="rgb(106,102,99)" stroke="rgb(106,102,99)" stroke-width="1" opacity="1" d="M 99.5 92 L 98.5 94 L 99.5 92 Z " /><path fill="rgb(106,102,99)" stroke="rgb(106,102,99)" stroke-width="1" opacity="1" d="M 42.5 94 L 41.5 96 L 42.5 94 Z " /><path fill="rgb(106,102,99)" stroke="rgb(106,102,99)" stroke-width="1" opacity="1" d="M 44.5 94 L 45.5 96 L 44.5 94 Z " /><path fill="rgb(106,102,99)" stroke="rgb(106,102,99)" stroke-width="1" opacity="1" d="M 59.5 95 L 59 96.5 L 58.5 98 L 58 96.5 L 59.5 95 Z " /><path fill="rgb(106,102,99)" stroke="rgb(106,102,99)" stroke-width="1" opacity="1" d="M 61.5 96 L 64 96.5 L 61.5 97 L 61.5 96 Z " /><path fill="rgb(106,102,99)" stroke="rgb(106,102,99)" stroke-width="1" opacity="1" d="M 78.5 96 L 83.5 97 Q 84.8 94.7 89.5 96 L 89.5 97 L 87.5 98 L 85.5 97 Q 84.2 99.2 79.5 98 L 78.5 96 Z " /><path fill="rgb(106,102,99)" stroke="rgb(106,102,99)" stroke-width="1" opacity="1" d="M 41.5 100 L 46 100.5 L 41.5 101 L 41.5 100 Z " /><path fill="rgb(106,102,99)" stroke="rgb(106,102,99)" stroke-width="1" opacity="1" d="M 80.5 102 L 87 102.5 L 80.5 103 L 80.5 102 Z " /><path fill="rgb(253,254,250)" stroke="rgb(253,254,250)" stroke-width="1" opacity="1" d="M 72 4 Q 75.8 2.5 75 5.5 L 72 5.5 L 72 4 Z " /><path fill="rgb(253,254,250)" stroke="rgb(253,254,250)" stroke-width="1" opacity="1" d="M 96.5 11 Q 99.8 9.9 99 12.5 L 97.5 12 L 95.5 13 L 96.5 11 Z " /><path fill="rgb(253,254,250)" stroke="rgb(253,254,250)" stroke-width="1" opacity="1" d="M 109.5 19 L 114 19 Q 112.9 21.7 115.5 21 L 117 20.5 Q 117.8 22.8 115.5 22 L 114 22.5 L 112.5 20 L 111.5 23 L 109.5 19 Z " /><path fill="rgb(253,254,250)" stroke="rgb(253,254,250)" stroke-width="1" opacity="1" d="M 41 23 L 44 24.5 Q 43.3 27.1 46 26 L 46 28 L 43 27.5 L 43.5 26 L 38 27 L 38 31 L 36.5 31 L 35.5 29 Q 38.5 29.7 37 26 L 41 26 L 41 23 Z " /><path fill="rgb(253,254,250)" stroke="rgb(253,254,250)" stroke-width="1" opacity="1" d="M 49 23 Q 51.7 21.9 51 24.5 Q 48.8 25.8 51.5 27 L 53 27.5 L 50 28 L 49 23 Z " /><path fill="rgb(253,254,250)" stroke="rgb(253,254,250)" stroke-width="1" opacity="1" d="M 116.5 24 L 119 24.5 L 116.5 25 L 116.5 24 Z " /><path fill="rgb(253,254,250)" stroke="rgb(253,254,250)" stroke-width="1" opacity="1" d="M 9 26 Q 12 25 11 28 L 14 28 L 14 29.5 Q 12.3 27.9 10.5 31 L 7 30.5 L 10 28.5 L 9 26 Z " /><path fill="rgb(253,254,250)" stroke="rgb(253,254,250)" stroke-width="1" opacity="1" d="M 116.5 26 L 119 31.5 L 117 32.5 Q 119.5 31 116 29.5 L 116.5 26 Z " /><path fill="rgb(253,254,250)" stroke="rgb(253,254,250)" stroke-width="1" opacity="1" d="M 53.5 29 L 57.5 32 L 59 31.5 L 58.5 34 L 53.5 29 Z " /><path fill="rgb(253,254,250)" stroke="rgb(253,254,250)" stroke-width="1" opacity="1" d="M 67.5 31 Q 72.3 29.7 71 33 L 67.5 32 L 66 32.5 L 67.5 31 Z " /><path fill="rgb(253,254,250)" stroke="rgb(253,254,250)" stroke-width="1" opacity="1" d="M 112.5 31 L 111.5 33 L 112.5 31 Z " /><path fill="rgb(253,254,250)" stroke="rgb(253,254,250)" stroke-width="1" opacity="1" d="M 6.5 32 L 9 32.5 L 6.5 33 L 6.5 32 Z " /><path fill="rgb(253,254,250)" stroke="rgb(253,254,250)" stroke-width="1" opacity="1" d="M 35.5 32 L 37 40 L 35 40 Q 36.3 44.1 33 43 L 35.5 32 Z " /><path fill="rgb(253,254,250)" stroke="rgb(253,254,250)" stroke-width="1" opacity="1" d="M 60.5 32 L 61.5 34 Q 58.7 34.7 60.5 32 Z " /><path fill="rgb(253,254,250)" stroke="rgb(253,254,250)" stroke-width="1" opacity="1" d="M 84.5 34 L 88 39.5 L 86 38.5 Q 86.7 35.9 84 37 L 84.5 34 Z " /><path fill="rgb(253,254,250)" stroke="rgb(253,254,250)" stroke-width="1" opacity="1" d="M 111 34 L 113 34.5 L 112 39 L 114 39.5 L 114 62 L 112 61.5 L 112 44.5 L 109 36 Q 112 37 111 34 Z " /><path fill="rgb(253,254,250)" stroke="rgb(253,254,250)" stroke-width="1" opacity="1" d="M 16.5 37 L 17 39.5 L 15.5 42 Q 11 40 14.5 38 L 15.5 40 L 16.5 37 Z " /><path fill="rgb(253,254,250)" stroke="rgb(253,254,250)" stroke-width="1" opacity="1" d="M 11.5 38 L 10.5 40 L 9 39.5 L 11.5 38 Z " /><path fill="rgb(253,254,250)" stroke="rgb(253,254,250)" stroke-width="1" opacity="1" d="M 48 38 L 52 39.5 L 50.5 39 Q 48.3 38.3 49 40.5 L 50.5 43 L 46 44 L 44.5 47 L 45 45.5 L 46.5 43 L 49 41.5 L 48 38 Z " /><path fill="rgb(253,254,250)" stroke="rgb(253,254,250)" stroke-width="1" opacity="1" d="M 77 38 L 81 38.5 L 77 40 L 77 38 Z " /><path fill="rgb(253,254,250)" stroke="rgb(253,254,250)" stroke-width="1" opacity="1" d="M 43 39 Q 46.3 37.7 45 42.5 L 43 41.5 L 43 39 Z " /><path fill="rgb(253,254,250)" stroke="rgb(253,254,250)" stroke-width="1" opacity="1" d="M 72.5 39 L 75 39.5 L 72.5 40 L 72.5 39 Z " /><path fill="rgb(253,254,250)" stroke="rgb(253,254,250)" stroke-width="1" opacity="1" d="M 11.5 46 L 12 47.5 L 10 48.5 L 11.5 46 Z " /><path fill="rgb(253,254,250)" stroke="rgb(253,254,250)" stroke-width="1" opacity="1" d="M 57.5 47 Q 59.8 48.8 59 53.5 Q 57.8 56.3 52.5 55 L 52.5 54 Q 57 55 58 52.5 L 57.5 47 Z " /><path fill="rgb(253,254,250)" stroke="rgb(253,254,250)" stroke-width="1" opacity="1" d="M 84.5 47 L 85 52.5 L 84 52.5 L 84.5 47 Z " /><path fill="rgb(253,254,250)" stroke="rgb(253,254,250)" stroke-width="1" opacity="1" d="M 35.5 51 L 34.5 53 L 35.5 51 Z " /><path fill="rgb(253,254,250)" stroke="rgb(253,254,250)" stroke-width="1" opacity="1" d="M 40.5 51 L 44 51.5 L 41.5 53 L 40.5 51 Z " /><path fill="rgb(253,254,250)" stroke="rgb(253,254,250)" stroke-width="1" opacity="1" d="M 39.5 53 L 44 54 L 44.5 56 L 76.5 56 L 78 55.5 L 78 57.5 L 77.5 60 L 44.5 60 Q 43.5 60 44 64.5 L 41 63.5 Q 41.8 65.8 39.5 65 L 44 59.5 L 44 57 Q 41.3 58.1 42 55.5 L 40 55.5 L 39.5 53 Z " /><path fill="rgb(253,254,250)" stroke="rgb(253,254,250)" stroke-width="1" opacity="1" d="M 31.5 54 L 36 54.5 L 31.5 55 L 31.5 54 Z " /><path fill="rgb(253,254,250)" stroke="rgb(253,254,250)" stroke-width="1" opacity="1" d="M 80.5 58 L 83 58.5 L 80.5 59 L 80.5 58 Z " /><path fill="rgb(253,254,250)" stroke="rgb(253,254,250)" stroke-width="1" opacity="1" d="M 39.5 60 L 37.5 63 L 37 61 L 39.5 60 Z " /><path fill="rgb(253,254,250)" stroke="rgb(253,254,250)" stroke-width="1" opacity="1" d="M 112.5 63 L 113 65.5 L 112 65.5 L 112.5 63 Z " /><path fill="rgb(253,254,250)" stroke="rgb(253,254,250)" stroke-width="1" opacity="1" d="M 93.5 65 L 98 65.5 L 93.5 66 L 93.5 65 Z " /><path fill="rgb(253,254,250)" stroke="rgb(253,254,250)" stroke-width="1" opacity="1" d="M 59.5 66 L 60.5 68 L 59.5 66 Z " /><path fill="rgb(253,254,250)" stroke="rgb(253,254,250)" stroke-width="1" opacity="1" d="M 77.5 66 L 81 66.5 L 77.5 67 L 77.5 66 Z " /><path fill="rgb(253,254,250)" stroke="rgb(253,254,250)" stroke-width="1" opacity="1" d="M 95 73 Q 98.8 71.5 98 74.5 L 95.5 79 L 95 73 Z " /><path fill="rgb(253,254,250)" stroke="rgb(253,254,250)" stroke-width="1" opacity="1" d="M 107.5 75 L 109 77.5 L 108 77.5 L 107.5 75 Z " /><path fill="rgb(253,254,250)" stroke="rgb(253,254,250)" stroke-width="1" opacity="1" d="M 23.5 81 L 24.5 83 L 23.5 81 Z " /><path fill="rgb(253,254,250)" stroke="rgb(253,254,250)" stroke-width="1" opacity="1" d="M 108.5 81 L 109 84.5 L 104 94.5 Q 106.8 96.5 106 101 L 101.5 100 L 100 100.5 L 98.5 97 L 96.5 101 L 96 98.5 L 97 96 L 100.5 94 L 101.5 96 L 105 90.5 L 104.5 89 L 107 87.5 L 106 84.5 L 108 84.5 L 108.5 81 Z M 103 98 Q 102 101 105 100 Q 106 97 103 98 Z " /><path fill="rgb(253,254,250)" stroke="rgb(253,254,250)" stroke-width="1" opacity="1" d="M 33.5 95 L 35 98.5 L 33 97.5 L 33.5 95 Z " /><path fill="rgb(253,254,250)" stroke="rgb(253,254,250)" stroke-width="1" opacity="1" d="M 65.5 97 L 66 99 Q 70.6 97.8 72 100.5 L 62.5 101 L 61.5 102 L 61 100.5 L 65.5 97 Z " /><path fill="rgb(253,254,250)" stroke="rgb(253,254,250)" stroke-width="1" opacity="1" d="M 36.5 99 L 37.5 101 L 36.5 99 Z " /></svg>